<svg width="102" height="33" viewBox="0 0 102 33" fill="none" xmlns="http://www.w3.org/2000/svg">
<path d="M12.0753 18C15.389 18 18.0753 15.3137 18.0753 12C18.0753 8.68629 15.389 6 12.0753 6C8.76155 6 6.07526 8.68629 6.07526 12C6.07526 15.3137 8.76155 18 12.0753 18Z" fill="#9A84F8"/>
<path fill-rule="evenodd" clip-rule="evenodd" d="M24.0753 12C24.0753 18.6274 18.7027 24 12.0753 24C5.44784 24 0.0752563 18.6274 0.0752563 12C0.0752563 5.37258 5.44784 0 12.0753 0C18.7027 0 24.0753 5.37258 24.0753 12ZM21.0753 12C21.0753 16.9706 17.0458 21 12.0753 21C7.10469 21 3.07526 16.9706 3.07526 12C3.07526 7.02944 7.10469 3 12.0753 3C17.0458 3 21.0753 7.02944 21.0753 12Z" fill="#9A84F8"/>
<path d="M6.07526 31C6.07526 29.8954 6.97069 29 8.07526 29H16.0753C17.1798 29 18.0753 29.8954 18.0753 31C18.0753 32.1046 17.1798 33 16.0753 33H8.07526C6.97069 33 6.07526 32.1046 6.07526 31Z" fill="#9A84F8"/>
<path d="M40.9529 21.8636C40.9529 21.4239 40.7864 21.0209 40.4535 20.6544C40.13 20.2758 39.4023 19.7689 38.2703 19.1338C36.6056 18.2666 35.4593 17.3688 34.8315 16.4406C34.2132 15.5123 33.7207 14.2709 33.7207 12.8907C33.7207 11.1563 34.3892 9.81439 35.3594 8.69069C36.3392 7.55477 37.633 6.98682 39.2406 6.98682C40.9338 6.98682 42.7147 7.86625 43.8495 9.11902C44.6446 10.225 44.8512 12.6879 44.8371 14.5453C44.8355 14.7536 44.834 14.9545 44.834 15.1454H41.3876C41.3876 14.9581 41.3932 14.7537 41.3992 14.5388C41.4444 12.9036 41.5063 10.6635 39.2263 10.7793C38.7983 10.7793 38.4463 10.9503 38.1704 11.2923C37.8946 11.6343 37.7566 12.1106 37.7566 12.7214C37.7566 13.1611 37.9088 13.5519 38.2132 13.8939C38.5176 14.2237 39.2358 14.7 40.3678 15.323C42.0135 16.1047 43.1741 16.978 43.8495 17.9429C44.5344 18.8956 44.8768 20.1353 44.8768 21.6621C44.8768 23.4331 44.3584 24.8561 43.3215 25.9309C42.2846 27.0058 40.9243 27.5432 39.2406 27.5432C38.1086 27.5432 37.1098 27.2623 36.2441 26.7004C35.3785 26.1264 34.6983 25.3324 34.2037 24.3187C33.7185 23.3049 33.476 21.4425 33.476 20.2699H37.1649C37.1839 21.1738 37.3989 22.7299 37.7033 23.1819C38.0173 23.6338 38.6252 24 39.3292 24C40.4136 24 40.9529 23.1217 40.9529 21.8636Z" fill="#9A84F8"/>
<path fill-rule="evenodd" clip-rule="evenodd" d="M68.1257 27.1589V7.41277H74.2923C81.5705 7.35906 80.562 19.8093 74.2923 19.8727H71.5502V27.1589H68.1257ZM71.5502 16.387V10.7915H74.2923C76.4847 11.4041 76.5211 15.5306 74.0772 16.387H71.5502Z" fill="#9A84F8"/>
<path d="M81.351 7.41277H84.7369V23.6611H90.7012V27.1589H81.351V7.41277Z" fill="#9A84F8"/>
<path d="M102 18.6751H96.0339V23.6611H102V27.1589H92.6354V7.41277H102V10.7865H96.0339V15.2641H102V18.6751Z" fill="#9A84F8"/>
<path d="M65.6596 27.1589H62.2431V12.5126L59.2161 16.7683L56.3091 12.5126V27.1589H52.8027V7.41277H56.5586L59.2161 11.2239L61.9198 7.41277H65.6596V27.1589Z" fill="#9A84F8"/>
<path d="M50.1926 7.41277H46.8184V27.1589H50.1926V7.41277Z" fill="#9A84F8"/>
</svg>
