<svg width="860" height="940" viewBox="0 0 860 940" fill="none" xmlns="http://www.w3.org/2000/svg">
<g clip-path="url(#clip0)">
<g filter="url(#filter0_f)">
<path fill-rule="evenodd" clip-rule="evenodd" d="M332.764 52.7275C332.764 52.7275 332.532 40.1967 322.893 44.1041C316.6 46.6796 324.651 54.2041 324.651 54.2041C312.434 52.6037 299.965 54.8729 289.038 60.6853C266.134 73.0891 254.05 102.965 270.39 97.5391L274.059 96.3212C274.059 96.3212 269.224 103.786 274.919 107.685C277.158 109.218 281.021 108.421 285.154 106.441L285.086 106.709C285.086 106.709 287.179 139.939 311.046 149.203C319.67 152.551 326.96 151.011 332.79 147.295C332.683 147.385 332.575 147.475 332.467 147.565L334.349 151.189L334.385 151.168C335.882 154.354 337.119 157.658 338.083 161.048C338.065 161.036 338.056 161.03 338.056 161.03C338.056 161.03 312.957 175.705 306.303 185.79C301.571 192.962 299.638 214.266 298.276 229.268C297.723 235.363 297.265 240.418 296.751 243.062L296.761 243.063C295.963 245.618 297.272 248.067 299.931 250.724L296.706 266.014C280.874 263.929 253.427 258.122 242.681 251.712C241.764 250.522 240.089 249.181 238.565 247.961C237.405 247.032 236.333 246.174 235.749 245.505C228.664 229.212 223.733 228.638 223.023 230.806C222.74 231.673 222.694 233.481 222.643 235.52C222.567 238.583 222.477 242.167 221.547 243.87C221.39 243.807 221.211 243.734 221.013 243.654C218.013 242.434 210.716 239.467 207.473 243.87C205.015 247.208 208.487 251.198 208.487 251.198C208.487 251.198 204.784 251.701 204.317 255.822C203.863 259.823 207.473 262.473 207.473 262.473C207.473 262.473 204.309 263.525 205.218 267.997C206.221 272.93 222.133 277.122 235.744 274.698C235.744 274.698 303.751 300.53 317.422 297.022C321.049 292.897 322.994 290.239 326.042 284.006L326 283.965L326.063 283.995C327.747 281.071 329.595 275.679 331.433 269.165C335.03 269.782 337.57 269.533 337.923 268.55C337.942 268.524 337.962 268.497 337.981 268.471L338.056 268.57L338.176 268.181C338.734 267.298 339.032 266.29 339.096 265.189L339.208 264.827L339.408 264.251C342.118 280.758 341.513 287.148 340.376 294.706C338.656 306.31 335.669 341.436 335.669 341.436C335.669 341.436 336.42 339.318 345.405 336.874C341.263 338.522 338.205 340.292 336.781 342.079C336.781 342.079 336.151 343.624 342.13 345.224C342.19 347.15 342.674 349.039 343.553 350.757C339.91 354.353 339.409 356.367 341.781 360.33C337.439 369.237 313.712 452.743 316.595 474.086C319.607 482.201 330.845 490.863 336.814 491.427C338.366 491.573 346.124 488.018 356.753 482.677C362.651 487.635 368.892 490.511 370.69 489.952C376.927 487.881 413.111 471.1 436.927 458.857C437.085 461.085 437.214 463.33 437.342 465.553C438.104 478.841 438.82 491.312 445.458 494.258C449.381 495.999 452.974 496.186 456.142 495.265L455.981 495.45C457.969 495.076 459.789 494.635 461.452 494.101C462.546 499.449 464.394 503.465 467.803 504.971C471.745 506.712 475.35 506.895 478.525 505.965L478.357 506.157C490.837 503.815 496.725 498.773 498.377 485.208C499.122 479.061 496.994 463.315 494.991 448.485L494.99 448.484C493.844 439.999 492.738 431.813 492.233 425.896C490.847 409.636 479.725 409.77 474.959 410.223C473.088 410.415 471.244 410.806 469.461 411.387C469.415 411.395 469.369 411.403 469.324 411.411C466.655 398.951 456.963 399.097 452.598 399.512C450.699 399.706 448.828 400.107 447.019 400.704C446.759 400.75 446.499 400.802 446.239 400.861C440.799 402.068 429.51 406.983 425.776 409.165C425.102 409.001 424.4 408.855 423.669 408.727C423.041 408.864 422.281 409.092 421.406 409.401C428.565 396.674 437.054 381.519 440.315 375.46C446.332 364.217 447.176 350.082 447.197 343.315C450.041 342.256 451.524 341.096 451.457 339.885C451.447 339.714 451.41 339.542 451.347 339.372C451.163 334.978 450.771 329.911 450.21 324.331C446.198 279.013 432.904 199.757 429.617 193.139L442.016 202.62C442.367 202.995 442.744 203.302 443.144 203.534C445.607 204.01 448.529 202.319 451.577 199.343L466.853 211.913C466.853 211.913 474.115 279.529 473.016 283.922C455.767 292.39 463.785 325.742 467.637 325.742C468.793 324.359 469.314 319.338 469.825 314.415C470.476 308.147 471.111 302.039 473.015 303.806L473.016 303.853C473.227 317.486 473.495 334.828 479.024 336.65C482.961 337.949 482.961 307.001 482.961 307.001C482.961 307.001 487.762 336.002 493.576 336.107C499.391 336.213 493.576 306.459 493.576 306.459C493.576 306.459 501.689 326.396 505.863 324.541C507.409 323.854 502.432 298.076 494.793 280.805C494.793 280.805 500.852 203.542 493.265 191.641C489.931 186.41 479.453 176.83 468.756 167.734C469.08 164.299 468.644 161.331 467.422 159.231L467.457 159.206L467.479 159.19C460.105 147.057 411.75 119.275 377.155 134.45C364.146 140.156 357.795 145.341 357.795 145.341C357.492 146.199 357.186 147.016 356.876 147.794L349.366 122.244L349.362 122.256L349.356 122.236L349.328 122.328C349.335 122.265 349.342 122.204 349.348 122.144C355.617 121.574 359.963 111.461 355.897 99.4363C355.694 98.8349 355.469 98.2661 355.225 97.729C355.473 98.1275 355.704 98.5542 355.916 99.0103C362 89.0862 360.758 67.5452 343.831 58.3986C350.513 52.1848 342.051 38.9043 332.764 52.7275ZM339.981 161.941C341.323 162.379 343.269 162.665 345.51 161.921C343.901 162.183 342.068 162.215 339.981 161.941Z" fill="black" fill-opacity="0.22"/>
</g>
<path d="M435.221 401.883C437.912 400.616 440.799 399.814 443.755 399.512C448.522 399.059 459.644 398.926 461.03 415.186C462.416 431.446 468.332 464.852 467.158 474.5C465.505 488.065 459.618 493.107 447.138 495.45C452.431 489.408 456.359 484.437 456.213 478.606C456.067 472.775 448.685 415.066 444.456 411.29C440.226 407.513 435.221 401.883 435.221 401.883Z" fill="#0F172E"/>
<path d="M415.722 410.163C415.102 409.469 430.691 402.349 437.396 400.861C444.903 399.164 452.261 402.904 453.804 416.479C455.348 430.053 463.748 468.637 460.588 479.555C457.429 490.474 448.549 499.554 436.615 494.258C424.682 488.962 431.889 452.887 423.555 436.608C423.555 436.608 425.9 421.852 415.722 410.163Z" fill="#0F172E"/>
<path d="M457.566 412.596C460.262 411.329 463.155 410.526 466.116 410.222C470.883 409.77 482.004 409.636 483.391 425.896C484.777 442.156 490.705 475.544 489.534 485.207C487.882 498.773 481.995 503.814 469.514 506.157C474.789 500.103 478.736 495.145 478.59 489.314C478.443 483.483 471.061 425.774 466.832 421.997C462.603 418.221 457.566 412.596 457.566 412.596Z" fill="#162141"/>
<path d="M438.068 420.876C437.463 420.18 453.052 413.059 459.739 411.559C467.264 409.875 474.604 413.602 476.166 427.189C477.727 440.776 486.106 479.332 482.934 490.268C479.761 501.205 470.907 510.248 458.96 504.971C447.014 499.693 454.234 463.6 445.916 447.318C445.916 447.318 448.259 432.547 438.068 420.876Z" fill="#162141"/>
<path d="M276.243 106.709C276.243 106.709 278.336 139.94 302.204 149.203C326.071 158.467 339.716 130.303 340.505 122.144C346.774 121.574 351.12 111.462 347.054 99.4364C342.988 87.4113 330.378 88.4225 326.685 94.203C326.685 94.203 313.941 85.1613 315.073 78.858C316.206 72.5546 295.983 78.9723 295.983 78.9723C295.983 78.9723 282.853 83.2616 282.225 84.4834C281.596 85.7053 276.243 106.709 276.243 106.709Z" fill="#E66E60"/>
<path d="M276.243 106.709C276.243 106.709 278.336 139.94 302.204 149.203C326.071 158.467 339.716 130.303 340.505 122.144C346.774 121.574 351.12 111.462 347.054 99.4364C342.988 87.4113 330.378 88.4225 326.685 94.203C326.685 94.203 313.941 85.1613 315.073 78.858C316.206 72.5546 295.983 78.9723 295.983 78.9723C295.983 78.9723 282.853 83.2616 282.225 84.4834C281.596 85.7053 276.243 106.709 276.243 106.709Z" fill="#FEFFB6" fill-opacity="0.51"/>
<path d="M340.416 98.6852C340.416 98.6852 330.923 100.102 334.186 112.252C335.908 109.454 340.974 111.86 339.215 116.616C341.736 112.833 339.337 108.284 335.908 109.454C335.322 105.958 335.485 100.378 340.416 98.6852Z" fill="#D14A3F"/>
<path d="M340.416 98.6852C340.416 98.6852 330.923 100.102 334.186 112.252C335.908 109.454 340.974 111.86 339.215 116.616C341.736 112.833 339.337 108.284 335.908 109.454C335.322 105.958 335.485 100.378 340.416 98.6852Z" fill="#FEFFB6" fill-opacity="0.51"/>
<path d="M340.523 122.244L348.191 148.329C348.191 148.329 346.985 165.146 329.41 161.656C328.073 156.774 326.172 152.066 323.744 147.626C323.744 147.626 334.745 139.881 340.523 122.244Z" fill="#E66E60"/>
<path d="M340.523 122.244L348.191 148.329C348.191 148.329 346.985 165.146 329.41 161.656C328.073 156.774 326.172 152.066 323.744 147.626C323.744 147.626 334.745 139.881 340.523 122.244Z" fill="#FEFFB6" fill-opacity="0.51"/>
<path d="M325.507 151.189C329.762 148.711 333.451 145.371 336.331 141.387C339.212 137.402 341.221 132.862 342.227 128.062L340.513 122.236C337.497 132.136 331.623 140.945 323.624 147.565L325.507 151.189Z" fill="#D14A3F"/>
<path d="M325.507 151.189C329.762 148.711 333.451 145.371 336.331 141.387C339.212 137.402 341.221 132.862 342.227 128.062L340.513 122.236C337.497 132.136 331.623 140.945 323.624 147.565L325.507 151.189Z" fill="#FEFFB6" fill-opacity="0.51"/>
<path d="M323.922 52.7273C323.922 52.7273 323.689 40.1966 314.05 44.104C307.757 46.6794 315.808 54.2039 315.808 54.2039C303.591 52.6036 291.123 54.8728 280.196 60.6852C257.291 73.089 245.207 102.964 261.547 97.539L265.217 96.3211C265.217 96.3211 260.382 103.786 266.076 107.685C271.771 111.583 287.973 100.415 292.39 93.0258C288.775 103.554 297.871 104.601 314.892 80.6953C315.2 91.6407 322.575 96.0191 327.925 97.9373C329.826 92.7979 342.629 89.4463 347.073 99.0102C353.157 89.0861 351.916 67.545 334.988 58.3985C341.67 52.1846 333.209 38.9042 323.922 52.7273Z" fill="#162141"/>
<path d="M327.938 342.079C327.938 342.079 325.711 347.543 369.397 348.564C413.084 349.584 442.912 345.221 442.614 339.885C442.316 334.549 415.525 329.52 392.716 328.317C369.908 327.115 334.023 334.448 327.938 342.079Z" fill="#B72039"/>
<path d="M335.299 337.777C334.087 339.729 333.397 341.946 333.294 344.217C333.191 346.489 333.679 348.74 334.711 350.757C331.067 354.353 330.567 356.367 332.938 360.329C328.596 369.237 304.87 452.743 307.753 474.085C310.764 482.201 322.002 490.862 327.971 491.427C333.939 491.991 431.631 437.831 431.631 437.831C431.631 437.831 439.061 412.966 414.827 408.727C403.095 411.279 345.658 445.703 345.658 445.703L368.755 373.088C368.755 373.088 361.224 370.824 360.471 364.077C359.718 357.329 361.999 332.002 361.999 332.002C352.958 333.171 344.025 335.103 335.299 337.777Z" fill="#E66E60"/>
<path d="M438.259 339.349C438.259 339.349 439.691 360.102 431.472 375.46C425.403 386.737 401.22 429.524 401.22 429.524L436.022 418.628C436.022 418.628 452.358 425.64 446.293 448.786C431.95 458.169 370.179 487.185 361.848 489.952C358.649 490.946 341.4 481.074 337.022 467.954C335.597 462.144 356.263 396.21 365.32 373.841C362.079 370.24 358.735 365.49 359.061 360.055C359.386 354.62 361.733 332.153 361.733 332.153C361.733 332.153 402.682 320.607 438.259 339.349Z" fill="#FEB777"/>
<path d="M362.841 373.66C362.543 374.274 362.445 374.961 362.56 375.626C362.675 376.291 362.998 376.901 363.484 377.372C363.87 376.356 364.384 374.97 364.887 373.428L365.058 373.397C365.058 373.397 382.204 366.214 394.084 364.941C387.537 363.742 374.737 366.555 365.901 369.745C366.778 366.849 367.119 363.83 366.908 360.832C366.265 355.451 368.817 332.768 368.817 332.768L366.698 332.95C366.698 332.95 365.779 347.835 364.999 357.872C364.691 362.194 364.152 366.5 363.383 370.772C361.855 371.375 360.368 372.078 358.934 372.878C360.16 373.41 361.492 373.677 362.841 373.66Z" fill="#E66E60"/>
<path d="M389.836 453.918C378.609 459.282 377.553 456.161 378.506 451.457C379.459 446.754 373.105 447.488 376.489 439.832C379.873 432.175 411.165 358.744 410.031 355.084C408.152 351.576 408.048 348.565 410.152 343.636C407.613 338.734 410.471 333.146 410.471 333.146L407.571 333.676C407.571 333.676 409.213 340.73 407.353 344.558C405.608 349.611 406.724 357.897 406.724 357.897L405.745 360.317C388.11 348.213 388.352 332.087 388.352 332.087L385.726 332.156C386.188 350.205 400.667 360.992 404.412 363.575C396.814 382.164 373.008 440.436 371.308 444.912C369.288 450.237 376.182 446.311 375.877 453.547C375.573 460.783 380.149 461.857 383.929 460.189C387.708 458.52 446.715 432.771 446.715 432.771L445.866 430.006C445.866 430.006 401.066 448.57 389.836 453.918Z" fill="#E66E60"/>
<path d="M407.099 428.006L401.315 429.816L394.294 441.656L407.099 428.006Z" fill="#E66E60"/>
<path d="M427.366 346.94C427.366 346.94 424.979 363.322 420.709 374.601C421.406 378.787 422.754 382.833 424.706 386.598L425.926 384.354L422.52 374.003C422.52 374.003 428.583 355.528 429.188 349.371C431.942 348.907 434.757 349.029 437.441 349.728L437.583 347.302L427.366 346.94Z" fill="#E66E60"/>
<path d="M456.227 156.821C461.844 160.084 461.134 171.789 454.642 182.966C448.149 194.143 439.999 204.634 434.301 203.534C428.684 200.271 427.809 182.327 434.301 171.151C440.794 159.974 450.61 153.558 456.227 156.821Z" fill="#121C37"/>
<path d="M329.08 268.55C328.242 270.887 315.046 269.076 304.685 261.348C294.324 253.621 286.179 248.584 287.923 243.05C291.806 237.843 306.21 237.793 316.572 245.521C326.933 253.248 332.964 263.343 329.08 268.55Z" fill="#121C37"/>
<path d="M416.354 177.635L458.01 211.913C458.01 211.913 465.273 279.529 464.173 283.922C446.924 292.391 454.942 325.742 458.795 325.743C461.421 322.598 460.772 300.651 464.173 303.806C464.384 317.446 464.646 334.826 470.181 336.651C474.119 337.949 474.119 307.001 474.119 307.001C474.119 307.001 478.919 336.002 484.734 336.108C490.548 336.214 484.734 306.459 484.734 306.459C484.734 306.459 492.847 326.397 497.02 324.542C498.566 323.854 493.589 298.076 485.95 280.805C485.95 280.805 492.009 203.542 484.423 191.641C476.836 179.739 432.268 145.321 432.268 145.321C423.196 150.117 407.427 162.834 416.354 177.635Z" fill="#E66E60"/>
<path d="M416.354 177.635L458.01 211.913C458.01 211.913 465.273 279.529 464.173 283.922C446.924 292.391 454.942 325.742 458.795 325.743C461.421 322.598 460.772 300.651 464.173 303.806C464.384 317.446 464.646 334.826 470.181 336.651C474.119 337.949 474.119 307.001 474.119 307.001C474.119 307.001 478.919 336.002 484.734 336.108C490.548 336.214 484.734 306.459 484.734 306.459C484.734 306.459 492.847 326.397 497.02 324.542C498.566 323.854 493.589 298.076 485.95 280.805C485.95 280.805 492.009 203.542 484.423 191.641C476.836 179.739 432.268 145.321 432.268 145.321C423.196 150.117 407.427 162.834 416.354 177.635Z" fill="#FEFFB6" fill-opacity="0.51"/>
<path d="M287.034 269.947L298.168 217.163C307.165 202.404 325.731 210.506 334.178 216.333C334.178 216.333 324.266 271.765 317.221 283.994L287.034 269.947Z" fill="#F2B88C"/>
<path d="M198.631 243.87C202.087 239.177 210.149 242.857 212.705 243.87C214.253 241.033 213.471 232.975 214.181 230.807C214.89 228.638 219.821 229.212 226.906 245.505C228.259 247.053 232.223 249.616 233.839 251.712C248.689 260.57 295.435 268.278 299.345 266.6L317.2 284.006C314.151 290.239 312.207 292.897 308.58 297.022C294.909 300.53 226.901 274.698 226.901 274.698C213.29 277.122 197.379 272.93 196.376 267.997C195.466 263.525 198.631 262.473 198.631 262.473C198.631 262.473 195.021 259.823 195.474 255.822C195.941 251.701 199.645 251.198 199.645 251.198C199.645 251.198 196.172 247.208 198.631 243.87Z" fill="#E66E60"/>
<path d="M198.631 243.87C202.087 239.177 210.149 242.857 212.705 243.87C214.253 241.033 213.471 232.975 214.181 230.807C214.89 228.638 219.821 229.212 226.906 245.505C228.259 247.053 232.223 249.616 233.839 251.712C248.689 260.57 295.435 268.278 299.345 266.6L317.2 284.006C314.151 290.239 312.207 292.897 308.58 297.022C294.909 300.53 226.901 274.698 226.901 274.698C213.29 277.122 197.379 272.93 196.376 267.997C195.466 263.525 198.631 262.473 198.631 262.473C198.631 262.473 195.021 259.823 195.474 255.822C195.941 251.701 199.645 251.198 199.645 251.198C199.645 251.198 196.172 247.208 198.631 243.87Z" fill="#FEFFB6" fill-opacity="0.51"/>
<path d="M199.392 250.728C199.392 250.728 202.388 254.496 213.475 252.41C224.561 250.325 214.733 242.413 208.74 243.682C208.74 243.682 217.894 245.93 215.677 249.17C213.46 252.41 204.021 253.828 199.647 249.528L199.392 250.728Z" fill="#D14A3F"/>
<path d="M198.552 270.43C198.552 270.43 201.549 274.198 212.635 272.112C223.722 270.027 213.894 262.115 207.901 263.384C207.901 263.384 217.055 265.632 214.838 268.872C212.62 272.112 203.182 273.53 198.807 269.23L198.552 270.43Z" fill="#D14A3F"/>
<path d="M198.552 262.146C198.552 262.146 201.549 265.914 212.635 263.828C223.722 261.743 214.306 251.369 208.313 252.638C208.313 252.638 218.612 256.636 216.205 260.946C214.414 263.521 203.388 264.784 198.807 260.946L198.552 262.146Z" fill="#D14A3F"/>
<path d="M348.952 145.34C348.952 145.34 355.303 140.156 368.312 134.45C402.908 119.275 451.262 147.057 458.636 159.189C458.636 159.189 423.248 184.635 434.369 203.534L420.774 193.138C424.46 200.561 440.731 299.329 442.383 339.146C422.895 336.63 415.978 327.593 365.975 332.241C328.85 335.73 326.826 341.436 326.826 341.436C326.826 341.436 329.813 306.31 331.533 294.706C332.672 287.14 333.276 280.745 330.558 264.201L329.214 268.57C320.161 256.692 304.078 244.757 287.908 243.062C289.686 233.911 290.806 195.876 297.46 185.79C304.115 175.704 329.214 161.029 329.214 161.029C329.214 161.029 340.538 169.201 348.952 145.34Z" fill="#263257"/>
<path opacity="0.5" d="M419.283 192.654C419.262 192.532 419.113 192.416 419.011 192.293C418.909 192.169 424.553 280.745 408.356 304.379C392.159 328.014 366.001 332.754 366.001 332.754C415.99 328.09 423.017 337.149 442.517 339.673C441.178 306.156 427.488 232.652 419.283 192.654Z" fill="#0F172E"/>
<path d="M330.624 264.082L310.939 219.92L329.142 268.345L330.624 264.082Z" fill="#0F172E"/>
<path d="M297.285 134.989C297.285 134.989 309.412 122.841 318.876 119.879C318.841 128.115 309.267 139.61 297.285 134.989Z" fill="white"/>
<path d="M295.363 118.027C291.258 117.865 287.194 119.014 283.775 121.301C286.507 117.238 291.092 114.106 295.363 118.027Z" fill="#162141"/>
<path d="M304.634 113.665C304.634 113.665 302.778 103.013 319.48 102.676C315.876 103.52 311.726 106.268 304.634 113.665Z" fill="#162141"/>
<path fill-rule="evenodd" clip-rule="evenodd" d="M323.922 52.7275C323.922 52.7275 323.69 40.1967 314.05 44.1041C307.758 46.6796 315.808 54.2041 315.808 54.2041C303.591 52.6037 291.123 54.8729 280.196 60.6853C257.291 73.0891 245.207 102.965 261.547 97.5391L265.217 96.3212C265.217 96.3212 260.382 103.786 266.076 107.685C268.315 109.218 272.179 108.421 276.312 106.441L276.243 106.709C276.243 106.709 278.336 139.939 302.204 149.203C310.828 152.551 318.117 151.011 323.948 147.295C323.84 147.385 323.733 147.475 323.624 147.565L325.507 151.189L325.543 151.168C327.04 154.354 328.276 157.658 329.24 161.048C329.223 161.036 329.214 161.03 329.214 161.03C329.214 161.03 304.115 175.705 297.46 185.79C292.728 192.962 290.795 214.266 289.434 229.268C288.881 235.363 288.422 240.418 287.909 243.062L287.919 243.063C287.121 245.618 288.429 248.067 291.089 250.724L287.864 266.014C272.031 263.929 244.584 258.122 233.839 251.712C232.921 250.522 231.246 249.181 229.722 247.961C228.563 247.032 227.491 246.174 226.906 245.505C219.821 229.212 214.89 228.638 214.181 230.806C213.897 231.673 213.852 233.481 213.801 235.52C213.724 238.583 213.634 242.167 212.705 243.87C212.547 243.807 212.368 243.734 212.171 243.654C209.171 242.434 201.874 239.467 198.631 243.87C196.172 247.208 199.645 251.198 199.645 251.198C199.645 251.198 195.941 251.701 195.474 255.822C195.021 259.823 198.631 262.473 198.631 262.473C198.631 262.473 195.466 263.525 196.376 267.997C197.379 272.93 213.29 277.122 226.901 274.698C226.901 274.698 294.909 300.53 308.58 297.022C312.207 292.897 314.151 290.239 317.2 284.006L317.157 283.965L317.221 283.995C318.905 281.071 320.753 275.679 322.59 269.165C326.187 269.782 328.728 269.533 329.08 268.55C329.1 268.524 329.119 268.497 329.138 268.471L329.214 268.57L329.334 268.181C329.891 267.298 330.19 266.29 330.254 265.189L330.365 264.827L330.566 264.251C333.275 280.758 332.671 287.148 331.533 294.706C329.813 306.31 326.826 341.436 326.826 341.436C326.826 341.436 327.578 339.318 336.562 336.874C332.421 338.522 329.363 340.292 327.939 342.079C327.939 342.079 327.309 343.624 333.288 345.224C333.348 347.15 333.832 349.039 334.711 350.757C331.068 354.353 330.567 356.367 332.938 360.33C328.596 369.237 304.87 452.743 307.753 474.086C310.764 482.201 322.003 490.863 327.971 491.427C329.524 491.574 337.281 488.018 347.911 482.677C353.808 487.635 360.049 490.511 361.848 489.952C368.085 487.881 404.268 471.1 428.085 458.857C428.243 461.085 428.372 463.33 428.499 465.553C429.262 478.841 429.977 491.312 436.615 494.258C440.538 495.999 444.131 496.186 447.3 495.265L447.138 495.45C449.126 495.076 450.947 494.635 452.61 494.101C453.704 499.449 455.552 503.465 458.961 504.971C462.902 506.712 466.507 506.895 469.682 505.965L469.515 506.157C481.995 503.815 487.882 498.773 489.535 485.208C490.28 479.061 488.152 463.315 486.148 448.485L486.148 448.484C485.001 439.999 483.895 431.813 483.391 425.896C482.005 409.636 470.883 409.77 466.116 410.223C464.245 410.415 462.402 410.806 460.618 411.387C460.573 411.395 460.527 411.403 460.481 411.411C457.813 398.951 448.12 399.097 443.756 399.512C441.856 399.706 439.985 400.107 438.177 400.704C437.917 400.75 437.657 400.802 437.397 400.861C431.957 402.068 420.668 406.983 416.934 409.165C416.259 409.001 415.558 408.855 414.827 408.727C414.198 408.864 413.439 409.092 412.564 409.401C419.722 396.674 428.212 381.519 431.473 375.46C437.489 364.217 438.334 350.082 438.354 343.315C441.199 342.256 442.682 341.096 442.614 339.885C442.605 339.713 442.568 339.542 442.505 339.372C442.321 334.978 441.929 329.911 441.367 324.331C437.356 279.013 424.062 199.757 420.774 193.139L433.174 202.62C433.525 202.995 433.901 203.302 434.302 203.534C436.765 204.01 439.687 202.319 442.735 199.343L458.01 211.913C458.01 211.913 465.273 279.529 464.173 283.922C446.925 292.39 454.942 325.742 458.795 325.742C459.95 324.359 460.472 319.338 460.983 314.415C461.634 308.147 462.268 302.039 464.173 303.806L464.174 303.853C464.384 317.486 464.653 334.828 470.181 336.65C474.119 337.949 474.119 307.001 474.119 307.001C474.119 307.001 478.92 336.002 484.734 336.107C490.548 336.213 484.734 306.459 484.734 306.459C484.734 306.459 492.847 326.396 497.02 324.541C498.566 323.854 493.59 298.076 485.95 280.805C485.95 280.805 492.009 203.542 484.423 191.641C481.088 186.41 470.611 176.83 459.913 167.734C460.238 164.299 459.801 161.331 458.58 159.231L458.614 159.206L458.636 159.19C451.262 147.057 402.908 119.275 368.312 134.45C355.303 140.156 348.953 145.341 348.953 145.341C348.65 146.199 348.343 147.016 348.034 147.794L340.523 122.244L340.519 122.256L340.514 122.236L340.486 122.328C340.493 122.265 340.499 122.204 340.505 122.144C346.775 121.574 351.121 111.461 347.054 99.4363C346.851 98.8349 346.626 98.2661 346.382 97.729C346.63 98.1275 346.861 98.5542 347.073 99.0103C353.157 89.0862 351.916 67.5452 334.989 58.3986C341.671 52.1848 333.209 38.9043 323.922 52.7275ZM331.139 161.941C332.48 162.379 334.427 162.665 336.668 161.921C335.058 162.183 333.225 162.215 331.139 161.941Z" fill="white" fill-opacity="0.16"/>
<g filter="url(#filter1_d)">
<ellipse cx="407.297" cy="620.91" rx="283.622" ry="114.477" transform="rotate(-16.8922 407.297 620.91)" fill="#969CAE"/>
<ellipse cx="380.355" cy="565.441" rx="380.233" ry="164.607" transform="rotate(-16.8922 380.355 565.441)" fill="#B9C1DA"/>
<ellipse cx="380.388" cy="560.862" rx="380.233" ry="164.607" transform="rotate(-16.8922 380.388 560.862)" fill="#E1E8FF"/>
<ellipse cx="380.388" cy="560.862" rx="380.233" ry="164.607" transform="rotate(-16.8922 380.388 560.862)" fill="url(#paint0_linear)"/>
<ellipse cx="378.981" cy="554.004" rx="309.538" ry="126.449" transform="rotate(-15.8729 378.981 554.004)" fill="#9EA0DA"/>
<ellipse cx="378.567" cy="551.99" rx="287.417" ry="117.412" transform="rotate(-15.8729 378.567 551.99)" fill="url(#paint1_linear)" fill-opacity="0.5"/>
<ellipse cx="378.567" cy="551.99" rx="287.417" ry="117.412" transform="rotate(-15.8729 378.567 551.99)" fill="white" fill-opacity="0.31"/>
</g>
<g filter="url(#filter2_f)">
<path fill-rule="evenodd" clip-rule="evenodd" d="M661.127 354.132C657.976 354.402 656.139 355.734 655.389 357.749C653.794 355.958 652.094 354.874 650.353 355.024C645.892 355.406 644.065 357.916 644.227 361.478C643.845 361.39 643.46 361.359 643.073 361.393C637.643 361.859 636.295 365.621 637.758 370.559C637.261 370.38 636.758 370.303 636.251 370.347C631.306 370.771 630.077 374.196 631.408 378.692C629.085 379.053 627.302 379.846 626.609 381.303C624.967 384.752 626.106 387.181 628.915 388.6C609.789 385.16 588.46 382.572 580.773 386.264L580.47 385.96C560.164 400.642 566.872 425.34 572.598 438.638C572.24 440.832 572.875 442.087 573.192 442.555C573.15 442.563 573.115 442.57 573.088 442.575C573.042 442.583 573.018 442.588 573.018 442.588L577.119 468.891C577.119 468.891 556.603 479.682 543.562 487.815C530.52 495.948 536.524 506.838 536.524 506.838C536.524 506.838 536.426 505.585 538.637 506.029C533.298 508.312 528.683 510.429 525.592 512.118C498.83 499.922 440.058 487.439 423.554 492.508C407.049 497.576 395.734 511.054 395.016 518.63C394.686 522.116 396.437 527.194 398.424 531.662C394.61 536.516 392.062 541.878 391.65 546.486C391.135 552.235 392.064 568.391 393.121 586.782L393.121 586.785C394.223 605.949 395.464 627.54 395.357 642.316C394.692 643.635 393.952 644.918 393.139 646.158C389.206 652.242 370.605 657.068 359.44 659.441C351.355 661.16 348.202 662.608 348.368 666.751C346.961 678.632 347.961 685.128 375.697 686.457C404.507 685.374 425.886 679.709 431.305 677.209C433.382 675.247 433.469 670.608 433.233 667.357C437.846 667.44 444.401 665.883 454.036 662.19C480.742 651.955 499.385 635.631 501.236 631.459C503.088 627.288 497.271 618.786 497.271 618.786L497.26 618.787C497.21 617.957 497.062 617.137 496.831 616.324C496.396 614.792 495.302 612.58 493.887 610.095C502.671 614.374 511.484 616.291 519.077 613.429C534.247 607.724 590.3 572.607 590.3 572.607C591.031 571.983 591.707 571.313 592.332 570.603C592.232 571.024 592.156 571.243 592.156 571.243C592.156 571.243 598.033 577.031 603.456 577.913C607.938 578.642 633.614 551.263 642.619 540.757L642.621 540.764L643.151 540.133C643.432 539.801 643.693 539.49 643.933 539.201L645.813 536.961L645.733 536.797L645.736 536.787C645.952 535.881 646.92 537.744 648.474 540.733C649.932 543.537 651.905 547.331 654.255 550.76C654.302 550.455 654.352 550.152 654.406 549.852C654.379 550.04 654.352 550.23 654.327 550.421C654.313 550.522 654.3 550.624 654.288 550.726C654.288 550.726 659.531 555.922 669.175 550.325C675.296 556.626 683.658 562.612 691.444 559.42C706.075 553.42 738.138 487.729 738.138 487.729C738.138 487.729 746.464 483.407 753.145 478.097C754.603 477.271 755.962 476.13 756.874 474.821C760.624 471.106 762.757 467.248 760.317 464.236C759.549 462.94 758.79 462.363 758.124 462.165L758.145 462.161L757.753 462.079C757.753 462.079 757.282 462.024 756.475 462.243C759.489 459.272 773.684 444.927 771.006 440.811C769.045 437.797 760.187 445.794 754.72 451.576C759.457 444.648 765.804 433.316 761.934 432C756.356 430.103 741.214 453.898 741.214 453.898C741.214 453.898 746.112 443.871 741.859 442.014C739.303 440.898 736.432 444.996 733.269 449.511C731.171 452.506 728.945 455.685 726.596 457.645C720.708 462.561 718.983 473.763 723.806 480.304C719.964 484.832 703.719 506.033 694.777 517.742C692.451 511.468 685.409 492.316 684.37 487.659C684.002 486.013 682.058 483.231 679.498 480.125C689.942 482.645 700.301 481.356 703.336 473.426C706.307 465.661 706.74 461.208 707.159 456.906C707.733 451.009 708.28 445.397 715.298 431.93C725.982 409.531 736.46 386.407 708.435 374.21C708.435 374.21 691.727 354.405 667.555 358.625C665.574 355.818 663.385 353.938 661.127 354.132ZM675.602 440.582C675.55 440.544 675.498 440.505 675.448 440.466L675.417 440.52C675.472 440.539 675.534 440.56 675.602 440.582ZM675.239 440.458L675.362 440.398C675.311 440.357 675.261 440.315 675.212 440.274C675.18 440.299 675.148 440.324 675.115 440.35C675.096 440.364 675.078 440.379 675.058 440.394L675.065 440.391C675.065 440.391 675.087 440.4 675.128 440.416C675.156 440.427 675.194 440.441 675.239 440.458ZM629.601 411.555C629.386 412.444 629.196 413.344 629.037 414.255C627.688 414.996 621.788 418.359 617.043 422.993C614.512 419.904 610.968 415.932 605.388 410.389C609.618 410.602 619.399 411.091 629.601 411.555ZM605.317 410.385C605.345 410.545 605.371 410.704 605.396 410.863C605.387 410.825 605.379 410.787 605.37 410.749L605.346 410.652L605.322 410.553C605.308 410.496 605.294 410.44 605.279 410.383L605.317 410.385ZM440.316 595.45L428.747 632.489C428.887 632.409 429.028 632.329 429.169 632.247C429.169 632.247 430.088 636.551 431.043 641.961C440.324 635.12 452.901 624.745 453.937 618.264C454.066 617.473 454.17 616.68 454.249 615.885L454.244 615.886L440.316 595.45Z" fill="black" fill-opacity="0.22"/>
</g>
<path d="M542.804 507.191C544.211 507.176 547.072 508.539 546.457 510.738C545.841 512.938 543.404 513.356 541.873 510.887C540.342 508.417 541.407 507.192 542.804 507.191Z" fill="#162141"/>
<path d="M482.983 612.385C482.983 612.385 488.8 620.887 486.949 625.058C485.097 629.23 466.455 645.554 439.749 655.789C413.043 666.025 409.999 659.849 406.382 647.839C413.554 651.26 415.351 653.31 421.577 650.229C427.803 647.148 476.388 612.564 476.388 612.564L482.983 612.385Z" fill="#B72039"/>
<path d="M467.075 584.773C467.075 584.773 480.7 603.438 482.544 609.923C484.388 616.408 480.893 623.339 465.416 632.138C449.938 640.936 417.651 660.528 410.751 653.539C403.852 646.55 404.77 644.162 414.09 637.495C423.411 630.829 438.51 618.991 439.65 611.863C440.34 607.625 440.311 603.31 439.566 599.097C439.566 599.097 454.777 601.522 467.075 584.773Z" fill="#FEB777"/>
<path d="M418.532 657.478C418.532 657.478 420.374 667.637 417.017 670.808C411.598 673.308 390.219 678.973 361.41 680.056C332.838 678.687 332.637 671.836 334.213 659.263C339.353 665.286 340.132 667.911 347.088 667.571C354.044 667.231 412.431 654.939 412.431 654.939L418.532 657.478Z" fill="#B72039"/>
<path d="M414.881 625.846C414.881 625.846 419.71 648.464 418.736 655.171C417.762 661.878 411.766 666.768 394.119 668.71C376.472 670.652 339.025 675.575 335.626 666.423C332.227 657.27 333.988 655.414 345.152 653.04C356.317 650.666 374.918 645.841 378.851 639.757C381.212 636.156 382.958 632.196 384.015 628.04C384.015 628.04 396.868 636.293 414.881 625.846Z" fill="#FEB777"/>
<path d="M572.939 480.773C572.939 480.773 525.671 497.866 511.304 505.717C484.542 493.521 425.77 481.038 409.266 486.107C392.762 491.175 381.446 504.653 380.729 512.229C380.011 519.805 389.125 534.903 389.125 534.903L439.957 609.485C439.957 609.485 473.255 598.63 473.087 584.416C476.043 565.753 525.268 546.405 525.268 546.405L554.14 523.173L585.644 503.309C585.644 503.309 582.069 484.615 572.939 480.773Z" fill="#0F172E"/>
<path d="M576.013 566.206C576.013 566.206 519.959 601.323 504.79 607.028C477.227 617.415 433.589 564.844 433.589 564.844L411.944 634.138C411.944 634.138 399.791 647.29 381.035 638.489C381.587 610.361 376.279 552.182 377.362 540.085C378.445 527.988 394.249 510.69 409.035 511.026C438.842 511.724 501.865 536.255 501.865 536.255C501.865 536.255 507.222 529.559 512.744 527.494C518.265 525.43 569.862 507.406 577.018 505.386C581.904 517.022 592.055 552.5 576.013 566.206Z" fill="#162141"/>
<path d="M572.306 507.843C572.306 507.843 510.729 529.089 506.552 531.886C502.374 534.682 493.533 532.715 493.533 532.715L493.831 529.947C493.831 529.947 497.997 534.15 510.069 528.736C522.142 523.322 572.001 506.963 572.001 506.963L572.306 507.843Z" fill="#0F172E"/>
<path d="M579.371 533.004C579.371 533.004 576.32 533.943 571.437 535.963C571.054 535.046 570.853 534.044 570.845 533.003L578.974 530.341L579.371 533.004Z" fill="#0F172E"/>
<path d="M564.584 504.543C564.584 504.543 584.169 545.056 564.642 572.508L561.736 574.296C561.736 574.296 582.827 548.431 561.241 504.815L564.584 504.543Z" fill="#0F172E"/>
<path d="M579.931 559.897C579.931 559.897 578.983 564.816 567.646 567.873L568.88 565.002C568.88 565.002 579.47 561.9 580.807 556.362C580.613 557.546 580.32 558.729 579.931 559.897Z" fill="#0F172E"/>
<path d="M494.138 530.679C494.138 530.679 508.829 543.345 509.377 564.343C509.87 549.058 506.82 537.54 496.839 525.687C492.081 522.394 494.138 530.679 494.138 530.679Z" fill="#0F172E"/>
<path d="M571.423 542.787C571.159 543.104 514.273 573.555 508.655 573.891C503.037 574.226 446.347 543.097 435.47 537.06C424.592 531.022 417.512 531.2 412.266 535.529C407.019 539.858 409.811 539.909 407.651 555.714C405.203 573.304 392.469 634.531 392.469 634.531L397.654 633.897C397.654 633.897 406.769 570.321 411.844 552.597C415.052 541.419 412.991 534.962 422.928 535.392C432.865 535.823 476.089 562.903 476.089 562.903C476.089 562.903 503.504 578.039 508.449 576.878C513.393 575.717 571.693 545.025 571.693 545.025L571.423 542.787Z" fill="#0F172E"/>
<path d="M553.487 579.538L554.049 573.557L525.424 589.56L520.721 598.423L516.656 600.596L525.038 587.716L556.709 570.758L556.024 578.009L553.487 579.538Z" fill="#0F172E"/>
<path d="M497.397 527.869C497.397 527.869 509.048 532.658 513.063 544.334C508.196 539.085 502.919 534.207 497.265 529.733L497.397 527.869Z" fill="#0F172E"/>
<path d="M567.921 522.203C567.921 522.203 544.108 535.049 540.685 564.689C539.642 565.837 538.438 566.84 537.12 567.658C537.12 567.658 539.225 536.832 568.862 518.796C570.371 521.081 567.921 522.203 567.921 522.203Z" fill="#0F172E"/>
<path d="M557.941 529.615L560.045 548.342L540.903 559.164L541.052 557.583L557.79 547.318L555.825 530.214L557.941 529.615Z" fill="#0F172E"/>
<path d="M555.646 546.016C556.378 545.73 557.384 548.091 555.427 548.28C553.47 548.47 554.115 546.653 555.646 546.016Z" fill="#0F172E"/>
<path d="M559.069 436.366C559.069 436.366 555.223 432.402 563.753 422.603C572.284 412.804 575.795 413.25 575.795 413.25L579.047 430.609C579.047 430.609 569.96 438.434 559.069 436.366Z" fill="#B72039"/>
<path d="M590.738 403.086C590.738 403.086 586.371 399.712 577.586 409.283C568.8 418.854 569.634 422.29 569.634 422.29L587.242 423.571C587.242 423.571 594.005 413.669 590.738 403.086Z" fill="#B72039"/>
<path d="M649.597 389.659C649.597 389.659 580.094 372.214 566 380.115L588.912 403.876C588.912 403.876 637.358 406.368 645.568 406.199C647.183 414.438 656.558 420.449 664.068 418.925C671.578 417.4 684.208 421.561 685.658 416.883C687.109 412.205 676.497 409.545 676.497 409.545C676.497 409.545 704.008 413.002 706.306 407.222C707.9 403.212 695.371 400.865 687.144 400.124C695.012 399.514 706.752 397.618 705.835 394.034C704.487 388.765 681.505 391.512 679.801 391.723C680.325 391.641 682.697 391.051 681.543 387.208C679.867 376.089 649.597 389.659 649.597 389.659Z" fill="#E66E60"/>
<path d="M649.597 389.659C649.597 389.659 580.094 372.214 566 380.115L588.912 403.876C588.912 403.876 637.358 406.368 645.568 406.199C647.183 414.438 656.558 420.449 664.068 418.925C671.578 417.4 684.208 421.561 685.658 416.883C687.109 412.205 676.497 409.545 676.497 409.545C676.497 409.545 704.008 413.002 706.306 407.222C707.9 403.212 695.371 400.865 687.144 400.124C695.012 399.514 706.752 397.618 705.835 394.034C704.487 388.765 681.505 391.512 679.801 391.723C680.325 391.641 682.697 391.051 681.543 387.208C679.867 376.089 649.597 389.659 649.597 389.659Z" fill="black" fill-opacity="0.4"/>
<path d="M566.183 379.559C537.376 400.388 562.933 441.372 562.933 441.372C577.031 437.032 592.455 420.289 592.455 420.289C579.734 408.475 585.967 406.112 589.835 403.379L566.183 379.559Z" fill="#E66E60"/>
<path d="M566.183 379.559C537.376 400.388 562.933 441.372 562.933 441.372C577.031 437.032 592.455 420.289 592.455 420.289C579.734 408.475 585.967 406.112 589.835 403.379L566.183 379.559Z" fill="black" fill-opacity="0.4"/>
<path d="M640 544.325C640 544.325 648.093 552.344 662.662 537.726C677.231 523.109 681.127 513.382 681.127 513.382C681.127 513.382 643.737 514.163 640 544.325Z" fill="#B72039"/>
<path d="M649.401 456.976C649.401 456.976 668.834 475.667 670.082 481.258C671.33 486.849 681.233 513.342 681.233 513.342C681.233 513.342 644.246 516.264 639.968 544.359C635.112 537.274 631.867 528.631 631.448 530.386C631.029 532.141 594.59 572.394 589.168 571.512C583.745 570.63 577.868 564.841 577.868 564.841C577.868 564.841 584.817 544.896 553.478 519.284C521.673 493.271 522.237 500.437 522.237 500.437C522.237 500.437 516.232 489.547 529.274 481.414C542.315 473.281 562.831 462.489 562.831 462.489L558.731 436.186C558.731 436.186 595.58 429.561 591.015 403.902C605.972 418.749 606.376 422.367 611.687 427.86C616.999 433.353 632.374 443.553 632.374 443.553C632.374 443.553 618.644 462.613 649.401 456.976Z" fill="#E93A47"/>
<path d="M635.509 434.147C635.509 434.147 642.67 441.86 631.397 444.503C620.024 444.876 599.475 443.627 596.629 430.166C594.198 418.669 615.033 407.699 615.033 407.699L635.509 434.147Z" fill="#0F172E"/>
<path d="M629.093 379.533C629.093 379.533 607.159 403.521 616.493 426.092C625.826 448.664 654.66 438.882 660.924 433.871C665.506 437.776 678.365 437.883 684.115 423.958C690.824 407.604 677.881 404.057 671.358 405.461C671.358 405.461 669.276 390.629 674.426 387.113C679.575 383.598 661.619 374.122 661.619 374.122C661.619 374.122 649.89 368.057 648.622 368.456C647.355 368.856 629.093 379.533 629.093 379.533Z" fill="#E66E60"/>
<path d="M629.093 379.533C629.093 379.533 607.159 403.521 616.493 426.092C625.826 448.664 654.66 438.882 660.924 433.871C665.506 437.776 678.365 437.883 684.115 423.958C690.824 407.604 677.881 404.057 671.358 405.461C671.358 405.461 669.276 390.629 674.426 387.113C679.575 383.598 661.619 374.122 661.619 374.122C661.619 374.122 649.89 368.057 648.622 368.456C647.355 368.856 629.093 379.533 629.093 379.533Z" fill="black" fill-opacity="0.34"/>
<path d="M677.473 418.185C677.473 418.185 670.2 412.675 663.857 423.125C666.966 422.418 668.629 427.506 664.152 429.511C668.496 428.708 670.033 423.948 666.966 422.418C668.993 419.616 672.988 415.959 677.473 418.185Z" fill="#D14A3F"/>
<path d="M677.473 418.185C677.473 418.185 670.2 412.675 663.857 423.125C666.966 422.418 668.629 427.506 664.152 429.511C668.496 428.708 670.033 423.948 666.966 422.418C668.993 419.616 672.988 415.959 677.473 418.185Z" fill="black" fill-opacity="0.4"/>
<path d="M661.227 433.919L648.072 456.772C648.072 456.772 635.49 467.352 626.297 453.015C628.813 448.776 630.83 444.272 632.308 439.593C632.308 439.593 645.07 441.962 661.227 433.919Z" fill="#E66E60"/>
<path d="M661.227 433.919L648.072 456.772C648.072 456.772 635.49 467.352 626.297 453.015C628.813 448.776 630.83 444.272 632.308 439.593C632.308 439.593 645.07 441.962 661.227 433.919Z" fill="black" fill-opacity="0.4"/>
<path d="M630.95 443.365C635.511 444.585 640.301 444.833 645.006 444.093C649.712 443.353 654.23 441.642 658.265 439.07L661.231 433.94C652.287 438.601 642.216 440.578 632.268 439.628L630.95 443.365Z" fill="#D14A3F"/>
<path d="M630.95 443.365C635.511 444.585 640.301 444.833 645.006 444.093C649.712 443.353 654.23 441.642 658.265 439.07L661.231 433.94C652.287 438.601 642.216 440.578 632.268 439.628L630.95 443.365Z" fill="black" fill-opacity="0.4"/>
<path d="M623.333 412.924C623.333 412.924 639.909 412.88 648.251 417.353C642.404 423.009 627.985 424.335 623.333 412.924Z" fill="white"/>
<path d="M633.721 399.976C631.114 397.03 627.602 395.022 623.713 394.256C628.303 393.373 633.656 394.321 633.721 399.976Z" fill="#162141"/>
<path d="M642.984 403.67C642.984 403.67 649.272 395.063 660.582 406.255C657.551 404.384 652.908 403.43 642.984 403.67Z" fill="#162141"/>
<path d="M694.147 367.809C694.147 367.809 675.754 346.006 649.645 353.027C605.618 383.896 616.493 395.358 632.342 386.067C645.453 409.408 663.139 381.32 656.659 394.525C653.332 401.307 663.876 403.648 671.202 405.555C671.202 405.555 687.3 406.288 681.049 423.03C674.798 439.772 660.777 433.99 660.777 433.99C660.777 433.99 642.627 440.48 640.076 450.33C635.486 468.05 682.003 485.434 689.048 467.025C696.092 448.615 688.872 448.82 701.01 425.529C711.694 403.13 722.172 380.005 694.147 367.809Z" fill="#0F172E"/>
<path d="M635.345 367.804C635.345 367.804 623.752 388.049 629.16 392.553C634.568 397.057 638.984 392.013 640.807 383.666C642.629 375.319 643.215 357.846 635.345 367.804Z" fill="#0F172E"/>
<path d="M656.347 371.772C656.347 371.772 644.755 392.018 650.163 396.522C655.571 401.025 659.987 395.982 661.809 387.634C663.631 379.287 664.217 361.814 656.347 371.772Z" fill="#0F172E"/>
<path d="M635.246 385.801C635.246 385.801 628.992 363.342 621.963 363.945C614.934 364.548 615.414 371.215 620.08 378.401C624.746 385.588 636.791 398.368 635.246 385.801Z" fill="#0F172E"/>
<path d="M638.089 374.56C638.089 374.56 615.282 368.68 612.321 374.902C609.36 381.123 615.446 384.028 624.067 383.665C632.688 383.301 649.881 379.496 638.089 374.56Z" fill="#0F172E"/>
<path d="M643.365 378.982C643.365 378.982 636.5 354.329 628.785 354.991C621.069 355.653 621.596 362.971 626.717 370.859C631.839 378.748 645.062 392.777 643.365 378.982Z" fill="#0F172E"/>
<path d="M651.316 373.717C651.316 373.717 644.135 347.93 636.065 348.622C627.994 349.314 628.545 356.969 633.902 365.221C639.259 373.472 653.09 388.146 651.316 373.717Z" fill="#0F172E"/>
<path d="M662.09 372.825C662.09 372.825 654.91 347.038 646.839 347.73C638.769 348.423 639.319 356.077 644.677 364.329C650.034 372.58 663.865 387.255 662.09 372.825Z" fill="#0F172E"/>
<path d="M645.859 532.603C645.859 532.603 662.525 559.018 677.156 553.018C691.787 547.019 723.851 481.328 723.851 481.328C723.851 481.328 752.86 466.267 746.029 457.835C743.796 454.064 741.633 456.383 741.633 456.383C741.633 456.383 759.711 439.01 756.718 434.41C753.725 429.809 734.661 450.865 736.118 450.534C737.575 450.203 753.224 427.496 747.646 425.598C742.068 423.701 726.926 447.497 726.926 447.497C726.926 447.497 731.824 437.47 727.571 435.613C723.319 433.757 718.197 446.328 712.309 451.244C706.42 456.16 704.696 467.362 709.519 473.903C704.146 480.234 674.525 519.162 674.525 519.162L671.667 515.942C671.667 515.942 652.692 519.838 645.859 532.603Z" fill="#E66E60"/>
<path d="M645.859 532.603C645.859 532.603 662.525 559.018 677.156 553.018C691.787 547.019 723.851 481.328 723.851 481.328C723.851 481.328 752.86 466.267 746.029 457.835C743.796 454.064 741.633 456.383 741.633 456.383C741.633 456.383 759.711 439.01 756.718 434.41C753.725 429.809 734.661 450.865 736.118 450.534C737.575 450.203 753.224 427.496 747.646 425.598C742.068 423.701 726.926 447.497 726.926 447.497C726.926 447.497 731.824 437.47 727.571 435.613C723.319 433.757 718.197 446.328 712.309 451.244C706.42 456.16 704.696 467.362 709.519 473.903C704.146 480.234 674.525 519.162 674.525 519.162L671.667 515.942C671.667 515.942 652.692 519.838 645.859 532.603Z" fill="black" fill-opacity="0.4"/>
<path d="M743.466 455.677C743.466 455.677 738.22 455.068 732.814 466.026C727.408 476.984 740.409 473.351 743.213 467.34C743.213 467.34 735.411 473.914 734.117 469.964C732.824 466.013 737.416 456.892 743.857 455.76L743.466 455.677Z" fill="#7D2C26"/>
<path d="M579.134 561.289C580.833 554.374 578.942 547.496 577.602 540.571C576.262 533.646 573.427 527.125 569.292 521.452C555.207 502.475 563.285 522.192 567.271 526.99C571.257 531.789 580.005 553.407 579.134 561.289Z" fill="#B72039"/>
<path d="M631.525 530.559L619.071 505.036L628.334 534.362L631.525 530.559Z" fill="#B72039"/>
<path d="M622.855 479.211C622.855 479.211 586.596 487.716 563.185 484.709C564.013 482.232 617.174 479.463 622.855 479.211Z" fill="#B72039"/>
<path fill-rule="evenodd" clip-rule="evenodd" d="M646.839 347.731C643.688 348.001 641.851 349.333 641.101 351.348C639.506 349.557 637.806 348.473 636.064 348.622C631.604 349.005 629.777 351.515 629.939 355.077C629.557 354.989 629.172 354.958 628.785 354.991C623.355 355.457 622.007 359.22 623.47 364.158C622.973 363.978 622.47 363.902 621.963 363.945C617.018 364.369 615.789 367.795 617.12 372.291C614.797 372.651 613.014 373.445 612.321 374.902C610.679 378.35 611.818 380.78 614.627 382.199C595.501 378.759 574.171 376.171 566.485 379.863L566.182 379.558C545.876 394.241 552.584 418.939 558.31 432.237C557.951 434.43 558.586 435.686 558.904 436.153C558.862 436.162 558.827 436.168 558.8 436.173C558.754 436.182 558.73 436.186 558.73 436.186L562.83 462.489C562.83 462.489 542.315 473.281 529.273 481.414C516.232 489.547 522.236 500.437 522.236 500.437C522.236 500.437 522.138 499.183 524.349 499.628C519.01 501.91 514.395 504.028 511.304 505.717C484.541 493.521 425.77 481.038 409.266 486.106C392.761 491.175 381.446 504.652 380.728 512.229C380.398 515.715 382.149 520.793 384.136 525.26C380.322 530.115 377.774 535.477 377.362 540.085C376.847 545.834 377.776 561.989 378.833 580.381L378.833 580.383C379.934 599.547 381.175 621.139 381.069 635.915C380.404 637.234 379.664 638.517 378.851 639.757C374.917 645.841 356.317 650.666 345.152 653.04C337.067 654.759 333.914 656.207 334.08 660.35C332.673 672.231 333.673 678.726 361.409 680.056C390.219 678.973 411.597 673.308 417.017 670.808C419.094 668.845 419.18 664.206 418.945 660.956C423.558 661.038 430.113 659.482 439.748 655.789C466.454 645.553 485.097 629.229 486.948 625.058C488.8 620.887 482.982 612.385 482.982 612.385L482.972 612.385C482.922 611.555 482.774 610.735 482.543 609.923C482.108 608.391 481.014 606.179 479.599 603.694C488.383 607.973 497.196 609.889 504.789 607.028C519.959 601.322 576.012 566.206 576.012 566.206C576.743 565.581 577.419 564.912 578.044 564.201C577.944 564.623 577.868 564.841 577.868 564.841C577.868 564.841 583.745 570.629 589.168 571.512C593.65 572.241 619.326 544.862 628.331 534.355L628.333 534.362L628.862 533.732C629.144 533.4 629.405 533.088 629.645 532.799L631.525 530.559L631.445 530.396L631.448 530.386C631.664 529.48 632.632 531.343 634.186 534.332C635.644 537.135 637.617 540.93 639.967 544.359C640.014 544.053 640.064 543.75 640.118 543.451C640.09 543.639 640.064 543.829 640.039 544.02C640.025 544.121 640.012 544.223 639.999 544.325C639.999 544.325 645.243 549.52 654.887 543.924C661.008 550.224 669.37 556.211 677.156 553.018C691.787 547.019 723.85 481.328 723.85 481.328C723.85 481.328 732.176 477.006 738.857 471.695C740.315 470.87 741.674 469.728 742.585 468.42C746.336 464.705 748.469 460.847 746.029 457.835C745.261 456.539 744.502 455.962 743.836 455.763L743.857 455.76L743.465 455.677C743.465 455.677 742.994 455.623 742.187 455.841C745.201 452.871 759.396 438.526 756.718 434.41C754.757 431.396 745.899 439.393 740.432 445.174C745.169 438.246 751.515 426.914 747.646 425.598C742.068 423.701 726.926 447.497 726.926 447.497C726.926 447.497 731.824 437.469 727.571 435.613C725.015 434.497 722.144 438.595 718.981 443.109C716.883 446.105 714.657 449.283 712.308 451.244C706.42 456.159 704.695 467.362 709.518 473.902C705.676 478.431 689.431 499.632 680.489 511.341C678.163 505.066 671.121 485.914 670.082 481.258C669.714 479.612 667.77 476.83 665.21 473.724C675.653 476.243 686.013 474.955 689.047 467.025C692.019 459.26 692.452 454.807 692.871 450.505C693.445 444.608 693.991 438.996 701.01 425.529C711.693 403.13 722.172 380.005 694.146 367.809C694.146 367.809 677.439 348.003 653.267 352.224C651.286 349.416 649.097 347.537 646.839 347.731ZM661.314 434.181C661.262 434.142 661.21 434.104 661.16 434.065L661.128 434.119C661.184 434.138 661.246 434.159 661.314 434.181ZM660.951 434.056L661.074 433.996C661.023 433.955 660.973 433.914 660.924 433.872C660.892 433.897 660.86 433.923 660.827 433.948C660.808 433.963 660.789 433.978 660.77 433.992L660.777 433.99C660.777 433.99 660.798 433.999 660.84 434.015C660.868 434.026 660.905 434.04 660.951 434.056ZM615.313 405.153C615.097 406.042 614.908 406.943 614.749 407.853C613.4 408.595 607.5 411.958 602.755 416.592C600.224 413.502 596.68 409.53 591.1 403.987C595.33 404.201 605.111 404.689 615.313 405.153ZM591.029 403.984C591.057 404.144 591.083 404.303 591.108 404.462C591.099 404.424 591.09 404.386 591.082 404.348L591.058 404.251L591.034 404.151C591.02 404.095 591.005 404.038 590.991 403.982L591.029 403.984ZM426.028 589.049L414.459 626.088C414.599 626.008 414.74 625.927 414.881 625.846C414.881 625.846 415.8 630.15 416.755 635.56C426.035 628.719 438.613 618.344 439.649 611.863C439.778 611.072 439.882 610.278 439.96 609.483L439.956 609.485L426.028 589.049Z" fill="white" fill-opacity="0.16"/>
<g filter="url(#filter3_f)">
<path fill-rule="evenodd" clip-rule="evenodd" d="M175.575 391.685C186.164 394.907 191.187 400.728 193.524 406.071C200.106 407.448 206.183 410.77 209.484 417.675C230.828 434.496 224.943 452.708 216.43 453.123C217.783 463.609 217.683 480.619 205.783 491.284C199.388 497.015 192.554 498.098 186.228 496.778L185.699 499.95L185.667 499.942C185.501 501.16 185.369 502.383 185.273 503.609C187.048 504.156 200.899 508.424 207.802 510.51C213.76 512.31 231.286 520.871 237.186 537.707C237.096 537.707 237.006 537.707 236.916 537.707C236.737 538.37 236.248 540.005 235.263 542.169C238.328 551.639 241.022 562.998 242.662 573.575C256.999 581.993 272.068 589.132 285.366 595.432C298.7 601.75 310.253 607.223 317.5 612.295C340.77 628.584 334.155 654.425 320.369 656.466C321.239 634.046 284.68 628.61 253.986 624.893C255.286 631.837 256.11 637.53 256.385 639.506C261.853 637.196 269.836 638.779 277.775 640.353L277.784 640.355C278.912 640.578 280.039 640.802 281.157 641.014L282.833 641.331C294.244 643.488 304.725 645.469 305.311 648.146C305.889 650.788 283.171 650.576 283.171 650.576C283.171 650.576 308.002 654.051 308.274 659.532C308.452 663.123 296.588 661.838 288.77 660.36C296.669 663.195 308.454 668.654 306.091 671.989C302.684 676.796 276.466 666.397 276.466 666.397C276.466 666.397 286.313 671.648 283.957 675.646C282.602 677.944 278.414 676.157 273.645 674.122C270.118 672.618 266.274 670.978 263.022 670.753C255.37 670.223 247.404 662.159 247.477 654.033L247.483 654.02C245.299 648.939 239.552 634.76 234.594 622.463C232.915 622.221 231.303 621.972 229.768 621.711C221.601 619.331 213.956 616.678 206.804 613.785C206.786 613.998 206.771 614.209 206.761 614.419C206.677 614.386 206.591 614.354 206.504 614.322C211.047 627.663 215.234 640.141 216.052 642.742C217.819 648.365 217.985 652.356 217.985 652.356C217.985 652.356 275.119 688.485 294.019 711.562L294.036 711.549C297.29 714.365 304.88 724.238 307.515 728.416C312.615 736.504 340.042 787.604 355.307 816.044L355.309 816.049L355.311 816.051L355.312 816.054C357.086 819.359 358.696 822.358 360.087 824.948C360.228 824.616 360.291 824.431 360.291 824.431C363.664 827.065 367.462 829.113 371.529 830.49C378.359 832.825 395.894 825.038 406.152 819.931C413.099 816.472 416.507 815.498 418.895 818.139L418.902 817.973C427.815 826.798 431.843 832.382 410.281 851.172C388.72 869.962 365.561 878.775 361.008 878.455C356.455 878.135 351.673 869.011 351.673 869.011L351.679 869.001C350.969 868.568 350.314 868.053 349.704 867.468C344.841 862.799 334.742 842.014 334.742 842.014C334.969 841.981 335.194 841.946 335.418 841.91C335.529 841.892 335.64 841.874 335.751 841.855C324.283 819.559 304.362 798.845 286.921 780.709C272.352 765.559 259.513 752.208 254.774 741.236L254.738 741.263C254.738 741.263 251.024 740.619 245.046 739.351C247.062 742.28 248.806 745.085 250.192 747.702C257.109 760.775 248.71 782.648 238.375 789.029C233.464 792.062 218.6 798.46 201.679 805.743C184.046 813.333 164.18 821.884 151.013 828.591C150.13 829.775 149.315 831.01 148.569 832.292C144.888 838.532 148.895 857.326 151.767 868.373C153.847 876.373 153.963 879.841 150.183 881.546C140.187 888.12 133.931 890.131 120.332 865.921C108.411 839.672 103.912 818.017 103.724 812.052C105.058 807.631 114.967 804.733 114.967 804.733L115.228 804.959C115.747 804.428 116.319 803.95 116.939 803.519C122.502 799.647 144.89 793.846 144.89 793.846C144.88 794.009 144.871 794.171 144.863 794.332L191.076 749.821C191.076 749.821 124.536 734.316 121.493 705.019C119.809 688.9 126.135 623.058 126.135 623.058C126.344 622.215 126.606 621.396 126.917 620.599C125.773 621.629 125.207 622.279 125.207 622.279C125.207 622.279 124.397 621.676 122.355 615.168C122.355 615.168 119.68 583.589 119.017 568.947L118.851 566.322L118.913 566.295C118.831 563.631 118.858 561.924 119.045 561.681L117.808 561.576L117.819 561.546C116.739 561.043 115.711 560.508 114.731 559.945C110.165 572.352 103.93 588.886 101.547 593.298L101.546 593.297C100.425 595.558 81.1136 634.516 76.3541 643.544L76.3595 643.557C75.7887 651.664 67.2104 659.072 59.5405 658.995C56.2804 658.962 52.3185 660.293 48.6844 661.514C43.769 663.165 39.4527 664.615 38.2839 662.217C36.2508 658.045 46.4824 653.589 46.4824 653.589C46.4824 653.589 19.524 661.882 16.5087 656.82C14.4168 653.309 26.5967 648.799 34.6952 646.598C26.7842 647.453 14.8562 647.795 15.318 644.23C16.0229 638.787 41.0506 637.288 41.0506 637.288C41.0506 637.288 18.3869 635.702 19.1727 633.113C19.9687 630.492 30.5731 629.346 42.1191 628.098L43.8143 627.915C44.9492 627.792 46.0933 627.658 47.2384 627.524C55.2769 626.582 63.3603 625.636 68.6284 628.372C69.7507 623.291 76.599 593.317 84.384 581.911L84.4032 581.924C87.1968 570.043 92.3392 552.782 97.2748 538.359C95.3178 532.676 95.1174 528.391 95.1174 528.391L95.1407 528.384L95.1824 528.373C95.2093 528.367 95.2443 528.358 95.2871 528.347C95.209 528.336 95.1308 528.324 95.0523 528.313C99.8045 519.538 106.283 513.237 112.689 508.797C107.306 482.865 109.87 458.735 114.563 443.084C126.978 401.678 152.586 384.69 175.575 391.685ZM118.501 559.459L117.889 561.354C118.116 560.726 118.32 560.093 118.501 559.459Z" fill="black" fill-opacity="0.22"/>
</g>
<path d="M188.318 423.929C188.318 423.929 191.564 404.68 168.576 397.685C145.587 390.69 119.979 407.679 107.563 449.085C95.148 490.491 97.6285 591.246 222.768 627.712C253.261 632.886 314.492 633.528 313.369 662.467C327.155 660.425 333.77 634.584 310.5 618.296C287.23 602.008 219.552 581.583 191.075 542.354C170.44 513.928 171.495 479.72 188.318 423.929Z" fill="#EFBB8D"/>
<path d="M185.071 619.204C184.197 618.102 181.337 616.739 180.016 618.602C178.695 620.465 179.905 622.621 182.788 622.255C185.67 621.889 185.951 620.29 185.071 619.204Z" fill="#162141"/>
<path d="M107.967 810.734C107.967 810.734 98.0581 813.632 96.7237 818.052C96.9124 824.018 101.411 845.672 113.333 871.921C127.341 896.861 133.558 893.975 144.097 886.941C136.411 885.038 133.715 885.517 130.906 879.143C128.098 872.77 112.968 815.054 112.968 815.054L107.967 810.734Z" fill="#5689A6"/>
<path d="M137.89 799.846C137.89 799.846 115.502 805.647 109.939 809.519C104.376 813.391 102.686 820.941 108.845 837.592C115.004 854.243 127.355 889.936 137.061 888.881C146.767 887.825 147.64 885.42 144.767 874.374C141.895 863.327 137.888 844.533 141.57 838.293C143.733 834.57 146.494 831.237 149.738 828.432C149.738 828.432 136.607 820.63 137.89 799.846Z" fill="#B1B1B1"/>
<path d="M151.225 703.923C146.396 688.452 139.618 622.656 139.618 622.656C140.561 601.576 174.781 587.764 186.961 584.462C189.769 591.347 207.285 643.119 209.052 648.742C210.819 654.366 210.985 658.357 210.985 658.357C210.985 658.357 268.16 694.511 287.039 717.587L247.739 747.264C247.739 747.264 159.984 732.046 151.225 703.923Z" fill="#1D294A"/>
<path d="M329.131 848.6C309.537 810.525 253.223 774.382 247.56 746.728L287.036 717.549C290.29 720.366 297.88 730.238 300.515 734.417C306.219 743.461 339.841 806.291 353.155 831.075C347.624 849.507 329.131 848.6 329.131 848.6Z" fill="#1D294A"/>
<path d="M344.674 875.011C344.674 875.011 349.455 884.136 354.008 884.456C358.561 884.776 381.72 875.963 403.281 857.173C424.843 838.383 420.816 832.798 411.902 823.973C411.562 831.912 412.53 834.46 406.89 838.515C401.25 842.57 347.923 869.27 347.923 869.27L344.674 875.011Z" fill="#5689A6"/>
<path d="M327.743 848.014C327.743 848.014 337.841 868.8 342.705 873.469C347.568 878.138 355.329 878.301 370.357 868.755C385.385 859.209 417.827 839.875 414.889 830.504C411.95 821.133 409.411 820.825 399.152 825.932C388.894 831.039 371.359 838.825 364.529 836.491C360.462 835.113 356.664 833.065 353.292 830.432C353.292 830.432 348.302 845.004 327.743 848.014Z" fill="#B1B1B1"/>
<path d="M119.136 629.058C119.136 629.058 112.809 694.9 114.493 711.02C117.536 740.317 184.076 755.822 184.076 755.822L131.789 806.183C131.789 806.183 125.465 822.936 141.727 835.773C166.636 822.694 221.041 801.411 231.375 795.03C241.71 788.649 250.109 766.776 243.193 753.702C229.233 727.358 179.097 681.97 179.097 681.97C179.097 681.97 182.688 674.183 182.064 668.322C181.44 662.46 174.474 608.251 173.078 600.947C160.486 601.783 124.216 608.579 119.136 629.058Z" fill="#162141"/>
<path d="M172.989 606.261C172.989 606.261 181.539 670.837 180.907 675.824C180.276 680.811 185.99 687.838 185.99 687.838L188.332 686.333C188.332 686.333 182.71 684.488 182.15 671.269C181.591 658.049 173.913 606.141 173.913 606.141L172.989 606.261Z" fill="#0F172E"/>
<path d="M147.326 611.2C147.326 611.2 147.852 614.348 148.23 619.62C149.222 619.552 150.207 619.283 151.142 618.825L149.885 610.363L147.326 611.2Z" fill="#0F172E"/>
<path d="M179.395 611.69C179.395 611.69 134.401 612.301 118.587 642.048L118.288 645.446C118.288 645.446 131.983 615.012 180.647 614.802L179.395 611.69Z" fill="#0F172E"/>
<path d="M123.025 622.732C123.025 622.732 119.05 625.78 121.388 637.287L123.403 634.899C123.403 634.899 121.44 624.04 125.794 620.366C124.821 621.07 123.895 621.861 123.025 622.732Z" fill="#0F172E"/>
<path d="M187.54 686.386C187.54 686.386 169.64 678.914 150.616 687.819C164.065 680.54 175.73 678.114 190.796 681.736C195.87 684.519 187.54 686.386 187.54 686.386Z" fill="#0F172E"/>
<path d="M142.133 622.685C141.967 623.064 140.186 687.562 142.4 692.737C144.613 697.912 197.817 734.683 208.083 741.709C218.349 748.736 221.358 755.147 219.834 761.777C218.31 768.406 217.015 765.932 203.846 774.935C189.21 784.994 140.151 823.776 140.151 823.776L138.398 818.856C138.398 818.856 191.178 782.259 204.758 769.79C213.319 761.92 220.016 760.874 215.185 752.18C210.355 743.485 166.797 716.946 166.797 716.946C166.797 716.946 140.994 699.199 139.82 694.258C138.646 689.316 140.011 623.445 140.011 623.445L142.133 622.685Z" fill="#0F172E"/>
<path d="M117.29 655.17L122.389 651.99L120.884 684.75L115.061 692.922L114.936 697.53L122.705 684.271L123.701 648.359L117.522 652.216L117.29 655.17Z" fill="#0F172E"/>
<path d="M188.595 682.214C188.595 682.214 179.099 673.937 166.86 675.57C173.732 677.574 180.456 680.112 186.987 683.166L188.595 682.214Z" fill="#0F172E"/>
<path d="M162.109 616.607C162.109 616.607 161.275 643.652 136.299 659.975C135.738 661.42 135.38 662.946 135.239 664.491C135.239 664.491 161.865 648.817 164.735 614.242C162.016 613.914 162.109 616.607 162.109 616.607Z" fill="#0F172E"/>
<path d="M159.945 628.849L142.255 635.346L141.142 657.307L142.489 656.466L144.18 636.904L160.356 631.009L159.945 628.849Z" fill="#0F172E"/>
<path d="M146.304 638.24C146.232 637.457 143.671 637.614 144.377 639.449C145.083 641.284 146.419 639.894 146.304 638.24Z" fill="#0F172E"/>
<path d="M114.624 555.797L110.826 567.55C89.1978 557.484 88.1175 534.391 88.1175 534.391C88.1175 534.391 119.713 525.833 114.624 555.797Z" fill="#5A7C7A"/>
<path d="M114.624 555.797L110.826 567.55C89.1978 557.484 88.1175 534.391 88.1175 534.391C88.1175 534.391 119.713 525.833 114.624 555.797Z" fill="black" fill-opacity="0.2"/>
<path d="M200.274 560.034L202.467 569.618C225.479 563.329 229.999 543.384 229.999 543.384C229.999 543.384 200.29 529.641 200.274 560.034Z" fill="#5A7C7A"/>
<path d="M200.274 560.034L202.467 569.618C225.479 563.329 229.999 543.384 229.999 543.384C229.999 543.384 200.29 529.641 200.274 560.034Z" fill="black" fill-opacity="0.2"/>
<path d="M61.4678 635.109C61.4678 635.109 68.8651 600.392 77.3841 587.911L94.5967 599.194C94.5967 599.194 72.8572 643.07 68.9112 650.376L61.4678 635.109Z" fill="#FC9F94"/>
<path d="M77.4005 587.937C81.8088 569.183 92.075 537.01 98.1391 523.766L113.003 551.442C113.003 551.442 98.4935 591.992 94.5475 599.298C94.5475 599.298 83.9807 592.599 77.4005 587.937Z" fill="#FC9F94"/>
<path d="M34.0507 643.288C34.0507 643.288 11.3871 641.702 12.1728 639.114C13.0076 636.364 24.6311 635.238 36.8144 633.915C47.0912 632.8 58.1202 630.801 63.7648 635.833L69.3597 649.558C68.7888 657.664 60.2105 665.072 52.5406 664.995C44.8708 664.918 33.3171 672.388 31.284 668.217C29.251 664.046 39.4826 659.59 39.4826 659.59C39.4826 659.59 12.5241 667.882 9.50878 662.82C7.41688 659.309 19.5968 654.8 27.6953 652.598C19.7844 653.453 7.8563 653.796 8.3181 650.23C9.02305 644.787 34.0507 643.288 34.0507 643.288Z" fill="#FC9F94"/>
<path d="M249.488 646.254C249.488 646.254 244.86 611.061 237.355 597.945L219.304 607.831C219.304 607.831 237.504 653.289 240.86 660.885L249.488 646.254Z" fill="#FC9F94"/>
<path d="M237.337 597.969C237.243 578.289 229.245 545.475 221.74 532.359L204.732 558.772C204.732 558.772 215.989 600.342 219.344 607.938C219.344 607.938 230.408 602.096 237.337 597.969Z" fill="#FC9F94"/>
<path d="M276.171 656.577C276.171 656.577 298.889 656.789 298.311 654.146C297.696 651.339 286.198 649.297 274.158 647.015C264.001 645.089 253.165 642.225 247.14 646.794L240.477 660.033C240.405 668.16 248.37 676.223 256.022 676.753C263.674 677.283 274.6 685.644 276.957 681.646C279.314 677.649 269.467 672.397 269.467 672.397C269.467 672.397 295.685 682.796 299.091 677.989C301.454 674.654 289.669 669.196 281.77 666.36C289.589 667.839 301.452 669.124 301.274 665.533C301.002 660.051 276.171 656.577 276.171 656.577Z" fill="#FC9F94"/>
<path d="M127.936 505.309C133.3 504.709 156.934 504.781 156.934 504.781C171.928 532.221 178.085 509.551 178.085 509.551C178.085 509.551 193.418 514.279 200.802 516.51C206.76 518.31 224.286 526.871 230.186 543.707C207.281 543.648 203.885 566.206 203.885 566.206C203.885 566.206 204.755 594.397 202.173 607.62C200.956 613.852 199.915 617.29 199.761 620.419C195.994 618.98 189.689 617.828 176.461 615.093C136.828 606.882 118.207 628.28 118.207 628.28C118.207 628.28 117.397 627.676 115.355 621.169C115.355 621.169 110.946 569.112 112.045 567.682L110.808 567.577C116.035 553.454 109.805 537.351 88.0524 534.314C99.9246 512.392 122.571 505.909 127.936 505.309Z" fill="#5A7C7A"/>
<path d="M156.757 483.05L157.23 509.414C157.23 509.414 163.132 524.757 178.109 516.647C177.955 511.721 178.366 506.804 179.333 501.993C179.333 501.993 167.015 497.899 156.757 483.05Z" fill="#FC9F94"/>
<path d="M178.699 505.951C174.116 504.815 169.804 502.717 166.041 499.795C162.279 496.873 159.151 493.192 156.861 488.991L156.743 483.066C162.321 491.468 170.183 498.067 179.351 502.042L178.699 505.951Z" fill="#DE7E77"/>
<path d="M207.594 449.862C207.594 449.862 216.972 480.983 198.783 497.285C180.594 513.586 158.842 492.28 155.367 485.05C149.546 486.585 137.909 481.111 138.758 466.07C139.795 448.424 152.998 450.833 158.269 454.924C158.269 454.924 166.569 442.457 163.451 437.058C160.332 431.659 180.621 430.896 180.621 430.896C180.621 430.896 193.82 430.51 194.789 431.419C195.758 432.328 207.594 449.862 207.594 449.862Z" fill="#FC9F94"/>
<path d="M147.246 463.743C147.246 463.743 156.188 461.927 157.378 474.093C154.882 472.109 151.179 475.975 154.346 479.721C150.778 477.116 151.455 472.16 154.882 472.109C154.268 468.706 152.252 463.68 147.246 463.743Z" fill="#DE7E77"/>
<path d="M197.995 488.696C197.995 488.696 183.073 481.477 173.617 481.895C176.437 489.525 188.858 496.966 197.995 488.696Z" fill="white"/>
<path d="M194.567 468.283C198.193 466.756 202.228 466.468 206.065 467.462C202.31 464.678 197.075 463.214 194.567 468.283Z" fill="#162141"/>
<path d="M184.618 467.599C184.618 467.599 182.679 457.118 167.637 462.307C171.18 461.934 175.777 463.085 184.618 467.599Z" fill="#162141"/>
<path d="M159.081 414.05C159.081 414.05 192.778 403.373 202.485 423.676C230.13 445.462 212.096 469.583 201.836 454.344C179.908 469.702 176.134 436.725 176.254 451.434C176.315 458.987 165.798 456.53 158.369 455.076C158.369 455.076 143.542 448.763 141.924 466.561C140.307 484.358 155.356 485.045 155.356 485.045L155.285 485.875C151.382 486.991 145.277 483.274 142.197 479.913C139.118 476.552 131.553 461.021 133.902 448.597C137.758 428.207 145.805 420.681 159.081 414.05Z" fill="#FFC794"/>
<path d="M120.169 625.06C124.47 619.384 131.003 616.521 137.226 613.2C143.449 609.88 150.3 607.974 157.311 607.613C180.921 606.601 160.519 612.745 154.282 612.671C148.044 612.598 125.742 619.419 120.169 625.06Z" fill="#5A7C7A"/>
<path d="M120.169 625.06C124.47 619.384 131.003 616.521 137.226 613.2C143.449 609.88 150.3 607.974 157.311 607.613C180.921 606.601 160.519 612.745 154.282 612.671C148.044 612.598 125.742 619.419 120.169 625.06Z" fill="black" fill-opacity="0.2"/>
<path d="M111.852 572.323L137.942 561.106L112.17 577.377L111.852 572.323Z" fill="#5A7C7A"/>
<path d="M111.852 572.323L137.942 561.106L112.17 577.377L111.852 572.323Z" fill="black" fill-opacity="0.2"/>
<path d="M152.366 543.51C152.366 543.51 168.598 577.03 185.678 593.32C187.081 591.117 155.749 548.081 152.366 543.51Z" fill="#5A7C7A"/>
<path d="M152.366 543.51C152.366 543.51 168.598 577.03 185.678 593.32C187.081 591.117 155.749 548.081 152.366 543.51Z" fill="black" fill-opacity="0.2"/>
<path fill-rule="evenodd" clip-rule="evenodd" d="M168.575 397.685C179.164 400.907 184.187 406.728 186.525 412.071C193.107 413.448 199.183 416.77 202.484 423.675C223.828 440.496 217.944 458.708 209.43 459.123C210.783 469.609 210.683 486.619 198.783 497.284C192.389 503.015 185.554 504.098 179.228 502.778L178.699 505.95L178.667 505.942C178.501 507.16 178.37 508.383 178.274 509.609C180.049 510.156 193.899 514.424 200.802 516.51C206.76 518.31 224.286 526.871 230.186 543.707C230.096 543.707 230.006 543.707 229.917 543.707C229.737 544.37 229.248 546.005 228.263 548.169C231.328 557.639 234.022 568.998 235.662 579.575C249.999 587.993 265.069 595.132 278.366 601.432C291.701 607.75 303.254 613.223 310.5 618.295C333.77 634.584 327.155 660.425 313.369 662.466C314.239 640.046 277.68 634.61 246.987 630.893C248.286 637.837 249.111 643.53 249.385 645.506C254.853 643.196 262.837 644.779 270.775 646.353L270.784 646.355C271.912 646.578 273.039 646.802 274.158 647.014L275.833 647.331C287.244 649.488 297.725 651.469 298.311 654.146C298.889 656.788 276.171 656.576 276.171 656.576C276.171 656.576 301.002 660.051 301.274 665.532C301.452 669.123 289.589 667.838 281.77 666.36C289.669 669.195 301.454 674.654 299.091 677.989C295.685 682.796 269.467 672.397 269.467 672.397C269.467 672.397 279.314 677.648 276.957 681.646C275.602 683.944 271.414 682.157 266.645 680.122C263.119 678.618 259.274 676.978 256.022 676.753C248.37 676.223 240.405 668.159 240.477 660.033L240.483 660.02C238.3 654.939 232.552 640.76 227.594 628.463C225.916 628.221 224.303 627.972 222.768 627.711C214.601 625.331 206.956 622.678 199.804 619.785C199.786 619.998 199.772 620.209 199.761 620.419C199.677 620.386 199.591 620.354 199.504 620.322C204.047 633.663 208.235 646.141 209.052 648.742C210.819 654.365 210.985 658.356 210.985 658.356C210.985 658.356 268.119 694.485 287.019 717.562L287.036 717.549C290.29 720.365 297.88 730.238 300.515 734.416C305.616 742.504 333.042 793.604 348.307 822.044L348.309 822.049L348.311 822.051L348.312 822.054C350.086 825.359 351.696 828.358 353.087 830.948C353.228 830.616 353.292 830.431 353.292 830.431C356.664 833.065 360.462 835.113 364.529 836.49C371.359 838.825 388.894 831.038 399.152 825.931C406.1 822.472 409.507 821.498 411.895 824.139L411.902 823.973C420.815 832.798 424.843 838.382 403.281 857.172C381.72 875.962 358.561 884.775 354.008 884.455C349.455 884.135 344.674 875.011 344.674 875.011L344.679 875.001C343.969 874.568 343.314 874.053 342.705 873.468C337.841 868.799 327.743 848.014 327.743 848.014C327.97 847.981 328.195 847.946 328.418 847.91C328.529 847.892 328.64 847.874 328.751 847.855C317.283 825.559 297.327 808.803 279.885 790.667C265.316 775.517 249.355 759.229 247.739 747.263C247.739 747.263 244.024 746.619 238.047 745.351C240.062 748.28 241.806 751.085 243.193 753.702C250.109 766.775 241.71 788.648 231.376 795.029C226.464 798.062 211.601 804.46 194.679 811.743C177.047 819.333 157.18 827.884 144.013 834.591C143.131 835.775 142.315 837.01 141.57 838.292C137.888 844.532 141.895 863.326 144.767 874.373C146.848 882.373 146.964 885.841 143.183 887.546C133.187 894.12 126.931 896.131 113.333 871.921C101.411 845.672 96.9124 824.017 96.7237 818.052C98.0581 813.631 107.967 810.733 107.967 810.733L108.228 810.959C108.747 810.428 109.319 809.95 109.939 809.519C115.502 805.647 137.89 799.846 137.89 799.846C137.88 800.009 137.871 800.171 137.863 800.332L184.076 755.821C184.076 755.821 117.536 740.316 114.493 711.019C112.809 694.9 119.136 629.058 119.136 629.058C119.345 628.215 119.606 627.396 119.917 626.599C118.773 627.629 118.207 628.279 118.207 628.279C118.207 628.279 117.397 627.676 115.355 621.168C115.355 621.168 112.68 589.589 112.017 574.947L111.851 572.322L111.913 572.295C111.831 569.631 111.858 567.924 112.045 567.681L110.808 567.576L110.819 567.546C109.739 567.043 108.711 566.508 107.731 565.945C103.165 578.352 96.9304 594.886 94.5476 599.298L94.5459 599.297C93.4252 601.558 74.1137 640.516 69.3543 649.544L69.3597 649.557C68.7888 657.664 60.2106 665.072 52.5407 664.995C49.2805 664.962 45.3187 666.293 41.6845 667.514C36.7692 669.165 32.4529 670.615 31.284 668.217C29.251 664.045 39.4826 659.589 39.4826 659.589C39.4826 659.589 12.5242 667.882 9.50882 662.82C7.41693 659.309 19.5969 654.799 27.6954 652.598C19.7844 653.453 7.85633 653.795 8.31812 650.23C9.02306 644.787 34.0507 643.288 34.0507 643.288C34.0507 643.288 11.3871 641.702 12.1729 639.113C12.9688 636.492 23.5733 635.346 35.1192 634.098L36.8145 633.915C37.9494 633.792 39.0935 633.658 40.2385 633.524C48.277 632.582 56.3604 631.636 61.6285 634.372C62.7508 629.291 69.5992 599.317 77.3842 587.911L77.4034 587.924C80.197 576.043 85.3394 558.782 90.275 544.359C88.3179 538.676 88.1175 534.391 88.1175 534.391L88.1408 534.384L88.1826 534.373C88.2094 534.367 88.2444 534.358 88.2873 534.347C88.2092 534.336 88.1309 534.324 88.0525 534.313C92.8046 525.538 99.2832 519.237 105.689 514.797C100.306 488.865 102.87 464.735 107.563 449.084C119.978 407.678 145.586 390.69 168.575 397.685ZM111.502 565.459L110.889 567.354C111.116 566.726 111.32 566.093 111.502 565.459Z" fill="white" fill-opacity="0.16"/>
</g>
<defs>
<filter id="filter0_f" x="164.277" y="3.34912" width="381.867" height="543.17" filterUnits="userSpaceOnUse" color-interpolation-filters="sRGB">
<feFlood flood-opacity="0" result="BackgroundImageFix"/>
<feBlend mode="normal" in="SourceGraphic" in2="BackgroundImageFix" result="shape"/>
<feGaussianBlur stdDeviation="20" result="effect1_foregroundBlur"/>
</filter>
<filter id="filter1_d" x="-31.302" y="272.872" width="893.347" height="600.559" filterUnits="userSpaceOnUse" color-interpolation-filters="sRGB">
<feFlood flood-opacity="0" result="BackgroundImageFix"/>
<feColorMatrix in="SourceAlpha" type="matrix" values="0 0 0 0 0 0 0 0 0 0 0 0 0 0 0 0 0 0 127 0"/>
<feOffset dx="40" dy="10"/>
<feGaussianBlur stdDeviation="15"/>
<feColorMatrix type="matrix" values="0 0 0 0 0 0 0 0 0 0 0 0 0 0 0 0 0 0 0.09 0"/>
<feBlend mode="normal" in2="BackgroundImageFix" result="effect1_dropShadow"/>
<feBlend mode="normal" in="SourceGraphic" in2="effect1_dropShadow" result="shape"/>
</filter>
<filter id="filter2_f" x="286.16" y="306.476" width="541.075" height="422.124" filterUnits="userSpaceOnUse" color-interpolation-filters="sRGB">
<feFlood flood-opacity="0" result="BackgroundImageFix"/>
<feBlend mode="normal" in="SourceGraphic" in2="BackgroundImageFix" result="shape"/>
<feGaussianBlur stdDeviation="20" result="effect1_foregroundBlur"/>
</filter>
<filter id="filter3_f" x="-24.695" y="350.156" width="490.781" height="575.719" filterUnits="userSpaceOnUse" color-interpolation-filters="sRGB">
<feFlood flood-opacity="0" result="BackgroundImageFix"/>
<feBlend mode="normal" in="SourceGraphic" in2="BackgroundImageFix" result="shape"/>
<feGaussianBlur stdDeviation="20" result="effect1_foregroundBlur"/>
</filter>
<linearGradient id="paint0_linear" x1="380.388" y1="396.254" x2="380.388" y2="725.469" gradientUnits="userSpaceOnUse">
<stop stop-color="white" stop-opacity="0"/>
<stop offset="1" stop-color="white"/>
</linearGradient>
<linearGradient id="paint1_linear" x1="81.0126" y1="570.351" x2="653.671" y2="533.461" gradientUnits="userSpaceOnUse">
<stop stop-color="#BDC5DC"/>
<stop offset="1" stop-color="#727C97"/>
</linearGradient>
<clipPath id="clip0">
<rect width="860" height="940" fill="white"/>
</clipPath>
</defs>
</svg>
