<svg width="244" height="170" viewBox="0 0 244 170" fill="none" xmlns="http://www.w3.org/2000/svg">
<g filter="url(#filter0_d)">
<path fill-rule="evenodd" clip-rule="evenodd" d="M121.663 59.118C121.663 14.6304 183.683 20.7365 183.683 59.118C183.683 67.727 181.686 75.9125 178.407 83.5465H119.7L113.805 66.275C113.494 65.365 112.621 64.769 111.66 64.8115C110.7 64.854 109.882 65.525 109.653 66.4588L101.697 98.9113L91.0574 47.495C90.8529 46.5064 89.9923 45.7904 88.983 45.7692C87.9737 45.7479 87.0837 46.427 86.8378 47.4061L77.7576 83.5465H65.3284C62.0193 75.9126 60 67.7272 60 59.118C60 20.7365 121.663 14.6304 121.663 59.118ZM67.3692 87.8764C83.1504 118.87 119.007 139.809 121.722 141.38V141.381C125.115 139.813 160.74 118.872 176.385 87.8764H118.152C117.226 87.8764 116.402 87.2873 116.103 86.4108L112.097 74.675L103.62 109.247C103.38 110.23 102.49 110.915 101.478 110.896C100.467 110.878 99.6028 110.161 99.3978 109.17L88.7332 57.6309L81.5455 86.239C81.3037 87.2015 80.4383 87.8764 79.4459 87.8764H67.3692ZM121.722 141.479C121.722 141.479 121.67 141.46 121.722 141.43C121.774 141.46 121.722 141.479 121.722 141.479Z" fill="url(#paint0_linear)"/>
</g>
<defs>
<filter id="filter0_d" x="44" y="12" width="163.683" height="153.479" filterUnits="userSpaceOnUse" color-interpolation-filters="sRGB">
<feFlood flood-opacity="0" result="BackgroundImageFix"/>
<feColorMatrix in="SourceAlpha" type="matrix" values="0 0 0 0 0 0 0 0 0 0 0 0 0 0 0 0 0 0 127 0"/>
<feOffset dx="4" dy="4"/>
<feGaussianBlur stdDeviation="10"/>
<feColorMatrix type="matrix" values="0 0 0 0 0 0 0 0 0 0 0 0 0 0 0 0 0 0 0.25 0"/>
<feBlend mode="normal" in2="BackgroundImageFix" result="effect1_dropShadow"/>
<feBlend mode="normal" in="SourceGraphic" in2="effect1_dropShadow" result="shape"/>
</filter>
<linearGradient id="paint0_linear" x1="121.842" y1="28" x2="121.842" y2="141.479" gradientUnits="userSpaceOnUse">
<stop stop-color="#FF5F5F"/>
<stop offset="1" stop-color="#FF5BEF"/>
</linearGradient>
</defs>
</svg>
