<svg width="102" height="33" viewBox="0 0 102 33" fill="none" xmlns="http://www.w3.org/2000/svg">
<path d="M12 18C15.3137 18 18 15.3137 18 12C18 8.68629 15.3137 6 12 6C8.68629 6 6 8.68629 6 12C6 15.3137 8.68629 18 12 18Z" fill="white"/>
<path fill-rule="evenodd" clip-rule="evenodd" d="M24 12C24 18.6274 18.6274 24 12 24C5.37258 24 0 18.6274 0 12C0 5.37258 5.37258 0 12 0C18.6274 0 24 5.37258 24 12ZM21 12C21 16.9706 16.9706 21 12 21C7.02944 21 3 16.9706 3 12C3 7.02944 7.02944 3 12 3C16.9706 3 21 7.02944 21 12Z" fill="white"/>
<path d="M6 31C6 29.8954 6.89543 29 8 29H16C17.1046 29 18 29.8954 18 31C18 32.1046 17.1046 33 16 33H8C6.89543 33 6 32.1046 6 31Z" fill="white"/>
<path d="M40.8776 21.8636C40.8776 21.4239 40.7111 21.0209 40.3782 20.6544C40.0548 20.2758 39.3271 19.7689 38.195 19.1338C36.5303 18.2666 35.3841 17.3688 34.7562 16.4406C34.1379 15.5123 33.6454 14.2709 33.6454 12.8907C33.6454 11.1563 34.3139 9.81439 35.2842 8.69069C36.264 7.55477 37.5577 6.98682 39.1653 6.98682C40.8586 6.98682 42.6395 7.86625 43.7742 9.11902C44.5693 10.225 44.776 12.6879 44.7619 14.5453C44.7603 14.7536 44.7588 14.9545 44.7588 15.1454H41.3123C41.3123 14.9581 41.318 14.7537 41.3239 14.5388C41.3691 12.9036 41.431 10.6635 39.1511 10.7793C38.723 10.7793 38.371 10.9503 38.0952 11.2923C37.8193 11.6343 37.6814 12.1106 37.6814 12.7214C37.6814 13.1611 37.8336 13.5519 38.138 13.8939C38.4424 14.2237 39.1606 14.7 40.2926 15.323C41.9383 16.1047 43.0988 16.978 43.7742 17.9429C44.4591 18.8956 44.8016 20.1353 44.8016 21.6621C44.8016 23.4331 44.2831 24.8561 43.2463 25.9309C42.2094 27.0058 40.8491 27.5432 39.1653 27.5432C38.0333 27.5432 37.0345 27.2623 36.1689 26.7004C35.3032 26.1264 34.6231 25.3324 34.1284 24.3187C33.6433 23.3049 33.4007 21.4425 33.4007 20.2699H37.0896C37.1086 21.1738 37.3237 22.7299 37.6281 23.1819C37.942 23.6338 38.55 24 39.2539 24C40.3384 24 40.8776 23.1217 40.8776 21.8636Z" fill="white"/>
<path fill-rule="evenodd" clip-rule="evenodd" d="M68.0504 27.1589V7.41277H74.2171C81.4953 7.35906 80.4867 19.8093 74.2171 19.8727H71.475V27.1589H68.0504ZM71.475 16.387V10.7915H74.2171C76.4094 11.4041 76.4458 15.5306 74.002 16.387H71.475Z" fill="white"/>
<path d="M81.2758 7.41277H84.6617V23.6611H90.626V27.1589H81.2758V7.41277Z" fill="white"/>
<path d="M101.925 18.6751H95.9586V23.6611H101.925V27.1589H92.5601V7.41277H101.925V10.7865H95.9586V15.2641H101.925V18.6751Z" fill="white"/>
<path d="M65.5844 27.1589H62.1678V12.5126L59.1409 16.7683L56.2338 12.5126V27.1589H52.7274V7.41277H56.4834L59.1409 11.2239L61.8445 7.41277H65.5844V27.1589Z" fill="white"/>
<path d="M50.1174 7.41277H46.7431V27.1589H50.1174V7.41277Z" fill="white"/>
</svg>
