<svg width="244" height="170" viewBox="0 0 244 170" fill="none" xmlns="http://www.w3.org/2000/svg">
<g clip-path="url(#clip0)">
<g filter="url(#filter0_d)">
<path d="M138.977 16C138.977 16 140.337 33.3899 144.763 37.8167C149.189 42.2427 156.36 42.2359 160.786 37.8097L138.977 16Z" fill="#C33E2F"/>
<path d="M160.705 21.8739C156.289 17.4583 138.975 16.095 138.888 16.0881L160.698 37.8973C165.125 33.4698 165.131 26.2998 160.705 21.8739Z" fill="#ED453F"/>
<path d="M90 139.346C90 146.927 96.1453 153.073 103.726 153.073H139.965C147.547 153.073 153.692 146.927 153.692 139.346V90.542V88.0015V74.9899C153.692 62.0505 143.203 51.5615 130.264 51.5615H113.449C100.51 51.5615 90.0207 62.0505 90.0207 74.9899V86.3903C90.0056 86.963 90 87.5026 90 88.0015V139.346Z" fill="url(#paint0_linear)"/>
<path d="M96.6985 76.9769C96.6985 69.3957 102.844 63.2499 110.426 63.2499H133.329C140.911 63.2499 147.056 69.3957 147.056 76.9769V132.328C147.056 144.538 140.911 146.055 133.329 146.055H110.426C102.844 146.055 96.6985 144.538 96.6985 132.328V76.9769Z" fill="url(#paint1_linear)"/>
<path d="M140.556 106.416C140.556 111.58 136.37 115.765 131.208 115.765H112.336C107.173 115.765 102.987 111.58 102.987 106.416V83.2617C102.987 74.9465 107.173 73.9131 112.336 73.9131H131.208C136.37 73.9131 140.556 74.9465 140.556 83.2617V106.416Z" fill="#4DC1EA"/>
<path d="M140.556 106.416C140.556 111.58 136.37 115.765 131.208 115.765H112.336C107.173 115.765 102.987 111.58 102.987 106.416V83.2617C102.987 74.9465 107.173 73.9131 112.336 73.9131H131.208C136.37 73.9131 140.556 74.9465 140.556 83.2617V106.416Z" fill="url(#paint2_linear)"/>
<path d="M112.402 74.9351C110.309 74.9351 107.959 75.0952 106.415 76.2798C104.842 77.4863 104.078 79.7698 104.078 83.2598V106.414C104.078 111.005 107.812 114.74 112.402 114.74H131.274C135.864 114.74 139.599 111.005 139.599 106.414V83.2598C139.599 79.7698 138.834 77.4863 137.261 76.2798C135.717 75.0952 133.368 74.9351 131.274 74.9351H112.402ZM131.274 116.787H112.402C106.683 116.787 102.03 112.134 102.03 106.414V83.2598C102.03 79.0896 103.057 76.2754 105.169 74.6552C107.199 73.0978 109.965 72.8878 112.402 72.8878H131.274C133.712 72.8878 136.477 73.0978 138.508 74.6552C140.62 76.2754 141.647 79.0896 141.647 83.2598V106.414C141.647 112.134 136.993 116.787 131.274 116.787Z" fill="#3A495D"/>
<path d="M101.76 133.541C101.759 133.568 101.757 133.596 101.757 133.623C101.757 133.63 101.757 133.637 101.757 133.643C101.757 133.65 101.757 133.657 101.757 133.663C101.757 133.691 101.759 133.718 101.76 133.746C101.876 139.509 110.096 141.069 120.735 141.288V125.999C110.096 126.218 101.876 127.778 101.76 133.541Z" fill="#A5C4C4"/>
<path d="M102.515 133.651L102.517 133.708C102.565 136.08 104.216 137.775 107.567 138.896C110.405 139.846 114.494 140.383 120.052 140.534V126.72C114.494 126.872 110.405 127.408 107.567 128.358C104.216 129.479 102.565 131.174 102.517 133.539L102.515 133.604V133.651ZM121.493 142.007L120.757 141.992C111.668 141.804 101.216 140.698 101.077 133.744L101.076 133.732C101.074 133.704 101.073 133.676 101.073 133.647C101.073 133.64 101.074 133.634 101.074 133.627C101.074 133.62 101.073 133.614 101.073 133.607C101.073 133.579 101.074 133.551 101.076 133.523L101.077 133.503C101.216 126.557 111.668 125.45 120.757 125.263L121.493 125.247V142.007Z" fill="#ECACAF"/>
<path d="M141.785 133.541C141.786 133.568 141.788 133.596 141.788 133.623C141.788 133.63 141.788 133.637 141.788 133.643C141.788 133.65 141.788 133.657 141.788 133.663C141.788 133.691 141.786 133.718 141.785 133.746C141.669 139.509 133.449 141.069 122.81 141.288V125.999C133.449 126.218 141.669 127.778 141.785 133.541Z" fill="#A5C4C4"/>
<path d="M123.567 126.72V140.534C129.125 140.383 133.214 139.846 136.052 138.896C139.403 137.775 141.054 136.08 141.102 133.715L141.104 133.648L141.104 133.627L141.104 133.605L141.102 133.546C141.054 131.174 139.403 129.479 136.052 128.358C133.214 127.408 129.125 126.872 123.567 126.72ZM122.126 142.007V125.247L122.862 125.263C131.951 125.45 142.403 126.557 142.542 133.51L142.543 133.523C142.544 133.551 142.545 133.579 142.545 133.607C142.545 133.614 142.545 133.62 142.545 133.627C142.545 133.634 142.545 133.64 142.545 133.647C142.545 133.676 142.544 133.704 142.543 133.732L142.542 133.751C142.403 140.698 131.951 141.804 122.862 141.992L122.126 142.007Z" fill="#ECACAF"/>
<path d="M101.76 133.541C101.759 133.568 101.757 133.596 101.757 133.623C101.757 133.63 101.757 133.637 101.757 133.643C101.757 133.65 101.757 133.657 101.757 133.663C101.757 133.691 101.759 133.718 101.76 133.746C101.876 139.509 110.096 141.069 120.735 141.288V125.999C110.096 126.218 101.876 127.778 101.76 133.541Z" fill="white"/>
<path d="M141.785 133.541C141.786 133.568 141.788 133.596 141.788 133.623C141.788 133.63 141.788 133.637 141.788 133.643C141.788 133.65 141.788 133.657 141.788 133.663C141.788 133.691 141.786 133.718 141.785 133.746C141.669 139.509 133.449 141.069 122.81 141.288V125.999C133.449 126.218 141.669 127.778 141.785 133.541Z" fill="white"/>
<path d="M116.038 133.437V138.21L111.905 135.824L107.772 133.437L111.905 131.051L116.038 128.665V133.437Z" fill="#3A495D"/>
<path d="M127.595 133.437V138.21L131.728 135.824L135.861 133.437L131.728 131.051L127.595 128.665V133.437Z" fill="#3A495D"/>
<path d="M119.286 100.498L118.286 101.744L117.301 100.498V94.5592L119.286 93.3131V100.498ZM119.286 92.676L117.301 91.2271V85.4911L118.286 84.2449L119.286 85.4911V92.676ZM117.993 102.149L116.978 103.424H112.146L111.131 102.149L112.146 100.933H116.978L117.993 102.149ZM117.993 83.8687L116.978 85.0852H112.146L111.131 83.8687L112.146 82.594H116.978L117.993 83.8687ZM118.825 92.9917L116.987 94.1455L112.136 94.1545L110.284 92.9917L112.186 91.6039H116.923L118.825 92.9917ZM111.808 100.498L110.808 101.744L109.823 100.498V93.3131L111.808 94.5592V100.498ZM111.808 91.2271L109.823 92.676V85.4911L110.808 84.2449L111.808 85.4911V91.2271Z" fill="#3F3C3D"/>
<path d="M122.744 98.9307H120.759V103.421H122.744V98.9307Z" fill="#3F3C3D"/>
<path d="M133.777 100.498L132.777 101.744L131.792 100.498V94.5592L133.777 93.3131V100.498ZM133.361 82.594L131.469 85.0852H126.637L125.621 83.8687L126.637 82.594H133.361ZM133.322 92.9884L131.478 94.1455L126.638 94.0957L124.773 92.9934L126.676 91.6039H131.473L133.322 92.9884ZM132.484 102.149L131.469 103.424H124.314L126.222 100.933H131.469L132.484 102.149ZM126.299 91.2271L124.314 92.676V85.4911L125.298 84.2449L126.299 85.4911V91.2271Z" fill="#3F3C3D"/>
<path d="M121.81 57.2259C126.694 57.2259 130.653 54.6899 130.653 51.5615H112.967C112.967 54.6899 116.926 57.2259 121.81 57.2259Z" fill="#B0B3B6"/>
<path d="M128.29 53.0652H127.947H115.816H115.473C115.221 53.0652 115.018 53.269 115.018 53.5203C115.018 53.7717 115.221 53.9755 115.473 53.9755H128.29C128.541 53.9755 128.745 53.7717 128.745 53.5203C128.745 53.269 128.541 53.0652 128.29 53.0652Z" fill="#8E9092"/>
<path d="M127.832 20.0937C127.832 17.8424 126.007 16.0173 123.755 16.0173H119.777C117.526 16.0173 115.701 17.8424 115.701 20.0937V30.6213H127.832V20.0937Z" fill="#CDCDCD"/>
<path d="M127.832 30.5767H115.701V53.3478H127.832V30.5767Z" fill="#6E8CAA"/>
<path d="M123.898 25.5089C123.898 26.9539 122.981 28.1256 121.85 28.1256C120.719 28.1256 119.802 26.9539 119.802 25.5089V20.958C119.802 19.5129 120.719 18.3413 121.85 18.3413C122.981 18.3413 123.898 19.5129 123.898 20.958V25.5089Z" fill="#C33E2F"/>
</g>
</g>
<defs>
<filter id="filter0_d" x="74" y="0" width="114.021" height="177.073" filterUnits="userSpaceOnUse" color-interpolation-filters="sRGB">
<feFlood flood-opacity="0" result="BackgroundImageFix"/>
<feColorMatrix in="SourceAlpha" type="matrix" values="0 0 0 0 0 0 0 0 0 0 0 0 0 0 0 0 0 0 127 0"/>
<feOffset dx="4" dy="4"/>
<feGaussianBlur stdDeviation="10"/>
<feColorMatrix type="matrix" values="0 0 0 0 0 0 0 0 0 0 0 0 0 0 0 0 0 0 0.25 0"/>
<feBlend mode="normal" in2="BackgroundImageFix" result="effect1_dropShadow"/>
<feBlend mode="normal" in="SourceGraphic" in2="effect1_dropShadow" result="shape"/>
</filter>
<linearGradient id="paint0_linear" x1="90" y1="51.486" x2="153.383" y2="153.073" gradientUnits="userSpaceOnUse">
<stop stop-color="#75689C"/>
<stop offset="1" stop-color="#3A495D"/>
</linearGradient>
<linearGradient id="paint1_linear" x1="121.877" y1="63.2499" x2="121.877" y2="146.055" gradientUnits="userSpaceOnUse">
<stop stop-color="#EA6A6B"/>
<stop offset="1" stop-color="#D4955B"/>
</linearGradient>
<linearGradient id="paint2_linear" x1="121.772" y1="73.9131" x2="121.772" y2="115.765" gradientUnits="userSpaceOnUse">
<stop stop-color="#9788D4"/>
<stop offset="1" stop-color="#79DDEA"/>
</linearGradient>
<clipPath id="clip0">
<rect width="244" height="170" fill="white"/>
</clipPath>
</defs>
</svg>
