<svg width="80" height="26" viewBox="0 0 80 26" fill="none" xmlns="http://www.w3.org/2000/svg">
<path d="M9.41873 14.2265C12.0196 14.2265 14.1281 12.118 14.1281 9.51712C14.1281 6.91621 12.0196 4.80775 9.41873 4.80775C6.81782 4.80775 4.70937 6.91621 4.70937 9.51712C4.70937 12.118 6.81782 14.2265 9.41873 14.2265Z" fill="#9A84F8"/>
<path fill-rule="evenodd" clip-rule="evenodd" d="M18.8375 9.51712C18.8375 14.7189 14.6206 18.9358 9.41873 18.9358C4.21691 18.9358 0 14.7189 0 9.51712C0 4.3153 4.21691 0.0983887 9.41873 0.0983887C14.6206 0.0983887 18.8375 4.3153 18.8375 9.51712ZM16.4828 9.51712C16.4828 13.4185 13.3201 16.5812 9.41873 16.5812C5.51736 16.5812 2.35468 13.4185 2.35468 9.51712C2.35468 5.61575 5.51736 2.45307 9.41873 2.45307C13.3201 2.45307 16.4828 5.61575 16.4828 9.51712Z" fill="#9A84F8"/>
<path d="M4.70937 24.4301C4.70937 23.5631 5.41218 22.8603 6.27915 22.8603H12.5583C13.4253 22.8603 14.1281 23.5631 14.1281 24.4301C14.1281 25.2971 13.4253 25.9999 12.5583 25.9999H6.27915C5.41218 25.9999 4.70937 25.2971 4.70937 24.4301Z" fill="#9A84F8"/>
<path d="M32.0846 17.259C32.0846 16.9139 31.9539 16.5975 31.6926 16.3099C31.4388 16.0127 30.8676 15.6149 29.9791 15.1164C28.6724 14.4357 27.7727 13.7311 27.28 13.0025C26.7946 12.2739 26.4081 11.2995 26.4081 10.2162C26.4081 8.85489 26.9328 7.80164 27.6943 6.91966C28.4634 6.02809 29.4788 5.5823 30.7406 5.5823C32.0697 5.5823 33.4675 6.27257 34.3581 7.25585C34.9822 8.12393 35.1444 10.0571 35.1333 11.5149C35.1321 11.6784 35.1309 11.8361 35.1309 11.9859H32.4258C32.4258 11.8389 32.4302 11.6785 32.4349 11.5098C32.4704 10.2264 32.519 8.46808 30.7294 8.559C30.3935 8.559 30.1172 8.69322 29.9007 8.96165C29.6841 9.23008 29.5759 9.60396 29.5759 10.0833C29.5759 10.4284 29.6954 10.7352 29.9343 11.0036C30.1732 11.2625 30.7369 11.6364 31.6254 12.1253C32.9171 12.7388 33.828 13.4243 34.3581 14.1817C34.8957 14.9294 35.1645 15.9025 35.1645 17.1008C35.1645 18.4909 34.7576 19.6078 33.9437 20.4514C33.1299 21.2951 32.0622 21.7169 30.7406 21.7169C29.8521 21.7169 29.0682 21.4964 28.3887 21.0554C27.7093 20.6048 27.1754 19.9817 26.7872 19.186C26.4064 18.3903 26.216 16.9285 26.216 16.0081H29.1114C29.1263 16.7175 29.2951 17.939 29.5341 18.2937C29.7805 18.6484 30.2577 18.9358 30.8102 18.9358C31.6613 18.9358 32.0846 18.2465 32.0846 17.259Z" fill="#9A84F8"/>
<path fill-rule="evenodd" clip-rule="evenodd" d="M53.4124 21.4152V5.91663H58.2525C63.9652 5.87447 63.1735 15.6466 58.2525 15.6963H56.1003V21.4152H53.4124ZM56.1003 12.9605V8.56858H58.2525C59.9733 9.04943 60.0019 12.2883 58.0837 12.9605H56.1003Z" fill="#9A84F8"/>
<path d="M63.7929 5.91663H66.4504V18.6698H71.1318V21.4152H63.7929V5.91663Z" fill="#9A84F8"/>
<path d="M80.0001 14.7564H75.3174V18.6698H80.0001V21.4152H72.6499V5.91663H80.0001V8.56466H75.3174V12.0791H80.0001V14.7564Z" fill="#9A84F8"/>
<path d="M51.4768 21.4152H48.7952V9.91945L46.4193 13.2597L44.1376 9.91945V21.4152H41.3854V5.91663H44.3335L46.4193 8.90796L48.5414 5.91663H51.4768V21.4152Z" fill="#9A84F8"/>
<path d="M39.3368 5.91663H36.6884V21.4152H39.3368V5.91663Z" fill="#9A84F8"/>
</svg>
