<svg width="80" height="26" viewBox="0 0 80 26" fill="none" xmlns="http://www.w3.org/2000/svg">
<path d="M9.41861 14.2265C12.0195 14.2265 14.128 12.118 14.128 9.51712C14.128 6.91621 12.0195 4.80775 9.41861 4.80775C6.8177 4.80775 4.70924 6.91621 4.70924 9.51712C4.70924 12.118 6.8177 14.2265 9.41861 14.2265Z" fill="white"/>
<path fill-rule="evenodd" clip-rule="evenodd" d="M18.8373 9.51712C18.8373 14.7189 14.6204 18.9358 9.41861 18.9358C4.21679 18.9358 -0.00012207 14.7189 -0.00012207 9.51712C-0.00012207 4.3153 4.21679 0.0983887 9.41861 0.0983887C14.6204 0.0983887 18.8373 4.3153 18.8373 9.51712ZM16.4827 9.51712C16.4827 13.4185 13.32 16.5812 9.41861 16.5812C5.51724 16.5812 2.35456 13.4185 2.35456 9.51712C2.35456 5.61575 5.51724 2.45307 9.41861 2.45307C13.32 2.45307 16.4827 5.61575 16.4827 9.51712Z" fill="white"/>
<path d="M4.70924 24.4301C4.70924 23.5631 5.41206 22.8603 6.27903 22.8603H12.5582C13.4252 22.8603 14.128 23.5631 14.128 24.4301C14.128 25.2971 13.4252 25.9999 12.5582 25.9999H6.27903C5.41206 25.9999 4.70924 25.2971 4.70924 24.4301Z" fill="white"/>
<path d="M32.0845 17.259C32.0845 16.9139 31.9538 16.5975 31.6925 16.3099C31.4386 16.0127 30.8675 15.6149 29.9789 15.1164C28.6723 14.4357 27.7726 13.7311 27.2798 13.0025C26.7945 12.2739 26.408 11.2995 26.408 10.2162C26.408 8.85489 26.9327 7.80164 27.6942 6.91966C28.4633 6.02809 29.4787 5.5823 30.7405 5.5823C32.0695 5.5823 33.4673 6.27257 34.358 7.25585C34.9821 8.12393 35.1443 10.0571 35.1332 11.5149C35.132 11.6784 35.1308 11.8361 35.1308 11.9859H32.4257C32.4257 11.8389 32.4301 11.6785 32.4348 11.5098C32.4703 10.2264 32.5188 8.46808 30.7293 8.559C30.3933 8.559 30.1171 8.69322 29.9006 8.96165C29.684 9.23008 29.5758 9.60396 29.5758 10.0833C29.5758 10.4284 29.6952 10.7352 29.9342 11.0036C30.1731 11.2625 30.7368 11.6364 31.6253 12.1253C32.917 12.7388 33.8279 13.4243 34.358 14.1817C34.8956 14.9294 35.1644 15.9025 35.1644 17.1008C35.1644 18.4909 34.7575 19.6078 33.9436 20.4514C33.1298 21.2951 32.0621 21.7169 30.7405 21.7169C29.852 21.7169 29.068 21.4964 28.3886 21.0554C27.7092 20.6048 27.1753 19.9817 26.7871 19.186C26.4063 18.3903 26.2159 16.9285 26.2159 16.0081H29.1113C29.1262 16.7175 29.295 17.939 29.5339 18.2937C29.7803 18.6484 30.2575 18.9358 30.81 18.9358C31.6612 18.9358 32.0845 18.2465 32.0845 17.259Z" fill="white"/>
<path fill-rule="evenodd" clip-rule="evenodd" d="M53.4123 21.4152V5.91663H58.2524C63.9651 5.87447 63.1734 15.6466 58.2524 15.6963H56.1002V21.4152H53.4123ZM56.1002 12.9605V8.56858H58.2524C59.9732 9.04943 60.0018 12.2883 58.0836 12.9605H56.1002Z" fill="white"/>
<path d="M63.7928 5.91663H66.4503V18.6698H71.1317V21.4152H63.7928V5.91663Z" fill="white"/>
<path d="M80 14.7564H75.3173V18.6698H80V21.4152H72.6498V5.91663H80V8.56466H75.3173V12.0791H80V14.7564Z" fill="white"/>
<path d="M51.4767 21.4152H48.795V9.91945L46.4192 13.2597L44.1375 9.91945V21.4152H41.3853V5.91663H44.3333L46.4192 8.90796L48.5413 5.91663H51.4767V21.4152Z" fill="white"/>
<path d="M39.3367 5.91663H36.6883V21.4152H39.3367V5.91663Z" fill="white"/>
</svg>
