<svg width="244" height="170" viewBox="0 0 244 170" fill="none" xmlns="http://www.w3.org/2000/svg">
<g clip-path="url(#clip0)">
<g filter="url(#filter0_d)">
<path d="M118.737 24H125.668V28.3319H118.737V24Z" fill="url(#paint0_linear)"/>
<path d="M117.663 30.9188H126.327V47.3793H117.663V30.9188Z" fill="url(#paint1_linear)"/>
<path d="M145.081 31.3832L152.026 34.7552L145.938 49.1736L138.993 45.8016L145.081 31.3832Z" fill="#ED176E"/>
<path d="M109.975 26.6356H134.234V30.9675H109.975V26.6356Z" fill="#5A5A5A"/>
<path d="M113.491 31.9071H129.951V35.3719H113.491V31.9071Z" fill="#5A5A5A"/>
<path d="M174.911 93.2628C174.911 122.51 151.201 146.217 121.955 146.217C92.7098 146.217 69 122.51 69 93.2628C69 64.0167 92.7098 40.3086 121.955 40.3086C151.201 40.3086 174.911 64.0167 174.911 93.2628Z" fill="#5A5A5A"/>
<path d="M174.911 93.2628C174.911 122.51 151.201 146.217 121.955 146.217C92.7098 146.217 69 122.51 69 93.2628C69 64.0167 92.7098 40.3086 121.955 40.3086C151.201 40.3086 174.911 64.0167 174.911 93.2628Z" fill="url(#paint2_linear)"/>
<path d="M169.531 93.2092C169.531 119.334 148.355 140.51 122.231 140.51C96.1087 140.51 74.9301 119.334 74.9301 93.2092C74.9301 67.0855 96.1087 45.9094 122.231 45.9094C148.355 45.9094 169.531 67.0855 169.531 93.2092Z" fill="url(#paint3_linear)"/>
<path d="M163.216 93.1821C163.216 115.924 144.781 134.359 122.039 134.359C99.2974 134.359 80.8608 115.924 80.8608 93.1821C80.8608 70.4406 99.2974 52.0048 122.039 52.0048C144.781 52.0048 163.216 70.4406 163.216 93.1821Z" fill="white"/>
<path d="M126.841 64.6174C126.841 67.2152 124.735 69.3221 122.136 69.3221C119.539 69.3221 117.432 67.2152 117.432 64.6174C117.432 62.0188 119.539 59.9119 122.136 59.9119C124.735 59.9119 126.841 62.0188 126.841 64.6174Z" fill="#5A5A5A"/>
<path d="M126.841 121.78C126.841 124.378 124.735 126.484 122.136 126.484C119.539 126.484 117.432 124.378 117.432 121.78C117.432 119.182 119.539 117.074 122.136 117.074C124.735 117.074 126.841 119.182 126.841 121.78Z" fill="#5A5A5A"/>
<path d="M150.8 97.9858C148.202 97.9858 146.095 95.8789 146.095 93.2802C146.095 90.6816 148.202 88.5756 150.8 88.5756C153.399 88.5756 155.506 90.6816 155.506 93.2802C155.506 95.8789 153.399 97.9858 150.8 97.9858Z" fill="#5A5A5A"/>
<path d="M93.4727 97.9858C90.8741 97.9858 88.768 95.8789 88.768 93.2802C88.768 90.6816 90.8741 88.5756 93.4727 88.5756C96.0713 88.5756 98.1782 90.6816 98.1782 93.2802C98.1782 95.8789 96.0713 97.9858 93.4727 97.9858Z" fill="#5A5A5A"/>
<path d="M152.151 34.2135L146.598 46.3117L146.6 46.3126L152.153 34.2135H152.151ZM175 93.2463C174.997 122.491 151.29 146.196 122.044 146.196V146.211C151.29 146.211 175 122.496 175 93.2497V93.2463Z" fill="#E6E6E6"/>
<path d="M146.082 31.4131L140.494 43.5847C142.627 44.3733 144.696 45.296 146.692 46.341L152.245 34.2428L146.082 31.4131Z" fill="#D61563"/>
<path d="M146.082 31.4131L140.494 43.5847C142.627 44.3733 144.696 45.296 146.692 46.341L152.245 34.2428L146.082 31.4131Z" fill="#ED176E"/>
<path d="M134.174 26.6356H125.51H122.044V30.9675H134.174V26.6356Z" fill="#515151"/>
<path d="M129.841 31.9071H126.377H122.044V35.3719H129.841V31.9071Z" fill="#515151"/>
<path d="M121.929 93.2367C121.929 93.2367 121.784 93.2283 121.533 93.1912C121.29 93.1465 120.908 93.1069 120.473 93.0056C119.588 92.815 118.392 92.4743 117.092 91.9328C115.79 91.3922 114.376 90.6567 112.997 89.7323C111.615 88.8129 110.274 87.6962 109.04 86.4732C107.813 85.2435 106.695 83.9058 105.774 82.5234C104.847 81.147 104.111 79.7325 103.572 78.4302C103.032 77.128 102.693 75.9312 102.505 75.0447C102.404 74.6078 102.365 74.2249 102.321 73.982C102.284 73.7306 102.276 73.5847 102.276 73.5847C102.276 73.5847 102.423 73.5923 102.673 73.6294C102.917 73.6733 103.3 73.7121 103.736 73.8141C104.623 74.0005 105.82 74.3404 107.122 74.8794C108.425 75.42 109.84 76.1547 111.216 77.0816C112.598 78.0026 113.936 79.1219 115.165 80.3482C116.388 81.583 117.505 82.9224 118.424 84.3048C119.349 85.6838 120.083 87.0982 120.626 88.3996C121.166 89.7011 121.507 90.8954 121.697 91.7801C121.799 92.2153 121.839 92.5983 121.883 92.8403C121.92 93.0917 121.929 93.2367 121.929 93.2367Z" fill="#ED176E"/>
<path d="M122.137 97.9858C119.538 97.9858 117.432 95.8789 117.432 93.2803C117.432 90.6816 119.538 88.5756 122.137 88.5756C124.736 88.5756 126.842 90.6816 126.842 93.2803C126.842 95.8789 124.736 97.9858 122.137 97.9858Z" fill="#ED176E"/>
<path d="M122.044 59.9119V69.3221C124.643 69.3221 126.749 67.2152 126.749 64.6174C126.749 62.0188 124.643 59.9119 122.044 59.9119Z" fill="#515151"/>
<path d="M122.044 117.074V126.484C124.642 126.484 126.748 124.378 126.748 121.78C126.748 119.182 124.642 117.075 122.044 117.074Z" fill="#515151"/>
<path d="M150.8 97.9866C153.399 97.9866 155.506 95.8799 155.506 93.2811C155.506 90.6823 153.399 88.5756 150.8 88.5756C148.202 88.5756 146.095 90.6823 146.095 93.2811C146.095 95.8799 148.202 97.9866 150.8 97.9866Z" fill="#515151"/>
</g>
</g>
<defs>
<filter id="filter0_d" x="53" y="8" width="146" height="162.217" filterUnits="userSpaceOnUse" color-interpolation-filters="sRGB">
<feFlood flood-opacity="0" result="BackgroundImageFix"/>
<feColorMatrix in="SourceAlpha" type="matrix" values="0 0 0 0 0 0 0 0 0 0 0 0 0 0 0 0 0 0 127 0"/>
<feOffset dx="4" dy="4"/>
<feGaussianBlur stdDeviation="10"/>
<feColorMatrix type="matrix" values="0 0 0 0 0 0 0 0 0 0 0 0 0 0 0 0 0 0 0.25 0"/>
<feBlend mode="normal" in2="BackgroundImageFix" result="effect1_dropShadow"/>
<feBlend mode="normal" in="SourceGraphic" in2="effect1_dropShadow" result="shape"/>
</filter>
<linearGradient id="paint0_linear" x1="122.202" y1="24" x2="122.202" y2="28.3319" gradientUnits="userSpaceOnUse">
<stop stop-color="#9788D4"/>
<stop offset="1" stop-color="#79DDEA"/>
</linearGradient>
<linearGradient id="paint1_linear" x1="121.995" y1="30.9188" x2="121.995" y2="47.3793" gradientUnits="userSpaceOnUse">
<stop stop-color="#9788D4"/>
<stop offset="1" stop-color="#79DDEA"/>
</linearGradient>
<linearGradient id="paint2_linear" x1="69" y1="40.2298" x2="118.983" y2="167.91" gradientUnits="userSpaceOnUse">
<stop stop-color="#75689C"/>
<stop offset="1" stop-color="#3A495D"/>
</linearGradient>
<linearGradient id="paint3_linear" x1="122.231" y1="45.9094" x2="122.231" y2="140.51" gradientUnits="userSpaceOnUse">
<stop stop-color="#9788D4"/>
<stop offset="1" stop-color="#79DDEA"/>
</linearGradient>
<clipPath id="clip0">
<rect width="244" height="170" fill="white"/>
</clipPath>
</defs>
</svg>
