<svg width="244" height="170" viewBox="0 0 244 170" fill="none" xmlns="http://www.w3.org/2000/svg">
<g filter="url(#filter0_d)">
<path d="M86.3297 139.672C78.5842 139.672 71.6789 133.47 70.9373 125.759L62.9997 43.2513C62.6539 39.6591 63.7304 36.5038 66.0314 33.9715C68.3315 31.4392 71.5862 30.2625 75.195 30.2625H169.832C173.441 30.2625 176.695 31.4568 178.995 33.989C181.296 36.5213 182.373 39.7944 182.027 43.3866L174.089 125.808C173.348 133.52 166.443 139.672 158.697 139.672H86.3297Z" fill="url(#paint0_linear)"/>
<path d="M86.3297 139.672C78.5842 139.672 71.6789 133.47 70.9373 125.759L62.9997 43.2513C62.6539 39.6591 63.7304 36.5038 66.0314 33.9715C68.3315 31.4392 71.5862 30.2625 75.195 30.2625H169.832C173.441 30.2625 176.695 31.4568 178.995 33.989C181.296 36.5213 182.373 39.7944 182.027 43.3866L174.089 125.808C173.348 133.52 166.443 139.672 158.697 139.672H86.3297Z" fill="#6B6B6B" fill-opacity="0.77"/>
<path d="M169.818 27H75.1809C65.9939 27 59.1971 34.4908 60.0766 43.6361L68.0134 126.322C68.8928 135.466 77.1294 143.091 86.3164 143.091H158.684C167.871 143.091 176.106 135.471 176.986 126.326L184.923 43.7045C185.803 34.5601 179.005 27 169.818 27ZM169.818 32.8463C172.593 32.8463 175.079 33.9095 176.819 35.8237C178.558 37.7388 179.369 40.3187 179.104 43.0807L171.166 125.764C170.575 131.911 164.86 137.244 158.684 137.244H86.3164C80.1402 137.244 74.4242 131.913 73.8329 125.767L65.8953 43.1542C65.6306 40.3922 66.4424 37.7731 68.1812 35.858C69.9209 33.9437 72.4064 32.8463 75.1809 32.8463H170.02" fill="url(#paint1_linear)"/>
<path d="M122.285 41.1917C113.113 41.1917 105.674 46.9444 105.674 57.8018H138.895C138.895 46.9444 131.457 41.1917 122.285 41.1917Z" fill="white"/>
<path d="M124.508 45.3891C124.508 46.3554 123.725 47.1396 122.757 47.1396C121.79 47.1396 121.008 46.3554 121.008 45.3891C121.008 44.4228 121.79 43.6385 122.757 43.6385C123.725 43.6385 124.508 44.4228 124.508 45.3891Z" fill="#5A5A5A"/>
<path d="M110.363 55.9464C109.396 55.9464 108.61 55.1639 108.61 54.1967C108.61 53.2296 109.396 52.447 110.363 52.447C111.328 52.447 112.112 53.2296 112.112 54.1967C112.112 55.1639 111.328 55.9464 110.363 55.9464Z" fill="#5A5A5A"/>
<path d="M122.773 54.2112C122.773 54.2112 122.721 54.2079 122.626 54.1937C122.536 54.177 122.394 54.162 122.232 54.1244C121.902 54.0542 121.456 53.9273 120.974 53.726C120.489 53.5256 119.962 53.2516 119.451 52.9075C118.936 52.5651 118.439 52.1492 117.979 51.6948C117.522 51.238 117.108 50.7402 116.764 50.2266C116.419 49.7138 116.145 49.1884 115.946 48.7024C115.744 48.2188 115.619 47.7736 115.548 47.4437C115.512 47.2817 115.496 47.1389 115.48 47.0487C115.466 46.9552 115.461 46.9009 115.461 46.9009C115.461 46.9009 115.517 46.9034 115.612 46.9176C115.701 46.9343 115.845 46.9485 116.006 46.9869C116.336 47.0562 116.781 47.1815 117.265 47.3828C117.75 47.5832 118.277 47.858 118.788 48.2021C119.302 48.5445 119.799 48.9613 120.257 49.4165C120.712 49.8766 121.128 50.3744 121.471 50.8889C121.814 51.4017 122.086 51.9278 122.288 52.4114C122.49 52.895 122.617 53.3401 122.686 53.6692C122.723 53.8312 122.738 53.9732 122.756 54.0634C122.771 54.1578 122.773 54.2112 122.773 54.2112Z" fill="#ED176E"/>
<path d="M122.76 55.9464C121.793 55.9464 121.008 55.1639 121.008 54.1967C121.008 53.2296 121.793 52.447 122.76 52.447C123.727 52.447 124.511 53.2296 124.511 54.1967C124.511 55.1639 123.727 55.9464 122.76 55.9464Z" fill="#ED176E"/>
<path d="M135.156 55.9464C136.122 55.9464 136.906 55.1631 136.906 54.1967C136.906 53.2304 136.122 52.447 135.156 52.447C134.189 52.447 133.405 53.2304 133.405 54.1967C133.405 55.1631 134.189 55.9464 135.156 55.9464Z" fill="#515151"/>
<path d="M113.933 107.819C112.506 97.1497 119.876 64.6493 100.057 66.379L100.053 66.3564C100.053 66.3564 99.391 66.4525 99.234 66.4784C99.0761 66.4951 99.2323 66.4667 98.4121 66.5769L98.4155 66.5986C78.8354 70.1415 94.6964 99.5342 96.1237 110.203L113.933 107.819Z" fill="#515151" fill-opacity="0.41"/>
<path d="M96.7016 113.389C97.2511 117.495 91.9418 129.498 106.78 127.973L106.781 127.996C107.603 127.885 107.442 127.9 107.6 127.874C107.759 127.856 108.423 127.776 108.423 127.776L108.42 127.754C123.134 125.324 115.06 115.11 114.509 111.008L96.7016 113.389Z" fill="#515151" fill-opacity="0.41"/>
<path d="M131.331 107.819C132.76 97.1497 125.387 64.6493 145.207 66.379L145.209 66.3564C145.209 66.3564 145.871 66.4525 146.03 66.4784C146.186 66.4951 146.032 66.4667 146.852 66.5769L146.848 66.5986C166.427 70.1415 150.566 99.5342 149.138 110.203L131.331 107.819Z" fill="#515151" fill-opacity="0.41"/>
<path d="M148.697 113.389C148.147 117.495 153.455 129.498 138.619 127.973L138.616 127.996C137.795 127.885 137.956 127.9 137.797 127.874C137.637 127.856 136.975 127.776 136.975 127.776L136.98 127.754C122.262 125.324 130.337 115.11 130.889 111.008L148.697 113.389Z" fill="#515151" fill-opacity="0.41"/>
</g>
<defs>
<filter id="filter0_d" x="44" y="11" width="165" height="156.091" filterUnits="userSpaceOnUse" color-interpolation-filters="sRGB">
<feFlood flood-opacity="0" result="BackgroundImageFix"/>
<feColorMatrix in="SourceAlpha" type="matrix" values="0 0 0 0 0 0 0 0 0 0 0 0 0 0 0 0 0 0 127 0"/>
<feOffset dx="4" dy="4"/>
<feGaussianBlur stdDeviation="10"/>
<feColorMatrix type="matrix" values="0 0 0 0 0 0 0 0 0 0 0 0 0 0 0 0 0 0 0.25 0"/>
<feBlend mode="normal" in2="BackgroundImageFix" result="effect1_dropShadow"/>
<feBlend mode="normal" in="SourceGraphic" in2="effect1_dropShadow" result="shape"/>
</filter>
<linearGradient id="paint0_linear" x1="122.513" y1="30.2625" x2="122.513" y2="139.672" gradientUnits="userSpaceOnUse">
<stop stop-color="#9788D4"/>
<stop offset="1" stop-color="#79DDEA"/>
</linearGradient>
<linearGradient id="paint1_linear" x1="122.5" y1="27" x2="122.5" y2="143.091" gradientUnits="userSpaceOnUse">
<stop stop-color="#9788D4"/>
<stop offset="1" stop-color="#79DDEA"/>
</linearGradient>
</defs>
</svg>
