<svg width="366" height="392" viewBox="0 0 366 392" fill="none" xmlns="http://www.w3.org/2000/svg">
<g filter="url(#filter0_i)">
<path d="M344.479 182.585C400.32 191.691 341.473 335.457 237.202 372.388C132.93 409.319 39.8981 387.071 14.4757 350.668C3.31821 334.691 -48.0069 256.874 145.66 252.58C339.327 248.286 288.638 173.479 344.479 182.585Z" fill="black" fill-opacity="0.13"/>
<path d="M344.479 182.585C400.32 191.691 341.473 335.457 237.202 372.388C132.93 409.319 39.8981 387.071 14.4757 350.668C3.31821 334.691 -48.0069 256.874 145.66 252.58C339.327 248.286 288.638 173.479 344.479 182.585Z" fill="url(#paint0_linear)"/>
</g>
<mask id="mask0" mask-type="alpha" maskUnits="userSpaceOnUse" x="6" y="0" width="359" height="391">
<path d="M359.525 189.036C380.924 247.961 326.172 336.62 237.201 372.388C148.231 408.156 39.898 387.071 14.4756 350.668C3.31811 334.691 -17.1636 39.0601 115.912 4.81403C248.988 -29.432 354.2 174.37 359.525 189.036Z" fill="white"/>
<path d="M359.525 189.036C380.924 247.961 326.172 336.62 237.201 372.388C148.231 408.156 39.898 387.071 14.4756 350.668C3.31811 334.691 -17.1636 39.0601 115.912 4.81403C248.988 -29.432 354.2 174.37 359.525 189.036Z" fill="url(#paint1_linear)"/>
</mask>
<g mask="url(#mask0)">
<g filter="url(#filter1_f)">
<path fill-rule="evenodd" clip-rule="evenodd" d="M220.51 83.4448C208.942 80.0544 193.065 89.4854 193.065 89.4854C193.065 89.4854 193.088 89.5311 193.138 89.6167C192.892 89.5691 192.644 89.523 192.395 89.4785C192.395 89.4785 181.547 93.386 177.559 110.568C175.438 119.707 176.949 132.793 178.35 144.913C179.582 155.581 180.728 165.501 179.234 171.322C177.45 178.271 171.046 186.897 165.513 194.35C161.145 200.233 157.319 205.385 156.739 208.403C156.728 208.46 156.721 208.514 156.718 208.567C155.815 209.283 154.989 210.001 154.254 210.718C153.719 211.237 153.162 211.835 152.591 212.492C150.247 215.186 147.625 218.945 144.931 223.216C140.954 229.516 136.838 236.924 133.279 243.655C130.628 248.662 128.292 253.29 126.548 256.808C124.549 260.831 123.333 263.401 123.333 263.401L125.722 265.149C124.66 267.667 117.721 283.849 115.42 282.389C114.527 281.823 112.358 279.435 109.482 276.269C104.319 270.584 96.8797 262.393 90.47 257.747C82.9456 252.293 71.8114 239.77 66.7871 233.938C66.9298 232.483 66.947 231.052 66.7452 229.805C65.902 224.598 66.3066 222.134 70.0906 217.948C73.3044 214.392 70.4694 212.294 69.5422 211.742L69.4639 211.469C73.5152 208.75 72.4864 206.788 71.5318 205.508C70.8295 204.566 69.074 204.662 67.5972 204.952L67.4523 204.447C68.7798 203.725 70.3784 202.806 71.2523 202.123C72.9265 200.815 71.4518 197.7 68.2887 197.398C67.6514 197.337 66.6929 197.527 65.5685 197.87L64.3059 193.463C65.7657 191.281 65.3729 189.842 63.1581 189.456L57.808 170.779C57.0985 168.305 54.5567 166.829 52.0479 167.437L32.0545 172.281C29.2576 172.959 27.6801 175.918 28.6828 178.607L34.9596 195.45C33.7691 196.293 33.1501 197.973 33.8982 199C35.2918 200.91 38.9471 208.679 39.694 210.277C37.0786 214.549 38.3158 216.892 38.3158 216.892C38.3158 216.892 41.6065 222.626 43.7345 225.728C45.863 228.829 48.2457 240.055 48.2457 240.055L48.3751 240.082C48.585 240.767 48.8445 241.481 49.1574 242.122C49.1427 242.217 49.1523 242.301 49.1882 242.373C50.0957 244.181 110.997 322.208 115.76 322.067C128.834 321.68 145.945 286.077 148.086 281.513L148.871 282.087L151.983 277.299C151.983 277.299 154.803 282.314 157.358 286.423C158.772 288.701 160.105 290.701 160.83 291.431C162.162 292.759 163.494 303.024 164.552 311.177C165.117 315.528 165.604 319.279 165.971 320.747C166.227 321.768 165.993 325.287 165.487 330.032C165.341 331.469 165.166 333.018 164.968 334.646C163.152 349.85 159.731 371.793 159.731 371.793C159.731 371.793 159.876 371.766 160.154 371.712L160.086 371.797C158.504 373.797 157.163 375.95 155.948 378.206C154.7 380.515 153.574 382.921 152.43 385.368C151.681 386.968 150.924 388.587 150.119 390.206C149.884 390.674 149.65 391.149 149.423 391.615C145.813 398.893 142.209 406.171 138.607 413.456C138.206 414.267 137.804 415.078 137.403 415.889L137.396 415.903C136.325 418.066 135.254 420.231 134.191 422.398V422.406C133.172 424.465 132.154 426.523 131.143 428.581C129.188 432.531 127.24 436.478 125.292 440.435V440.443C124.56 441.925 123.827 443.414 123.094 444.903L121.676 447.787C119.521 452.17 117.365 456.553 115.215 460.939C113.055 465.342 110.901 469.743 108.749 474.153C105.724 480.352 102.706 486.549 99.7039 492.753C99.0152 494.184 98.29 495.622 97.5507 497.073V497.082C96.6001 498.926 95.6229 500.788 94.64 502.661C94.3509 503.212 94.0613 503.763 93.7718 504.316V504.322C92.6298 506.505 91.4939 508.702 90.3955 510.914C88.3014 515.162 86.3613 519.455 84.8664 523.784C84.5585 524.652 84.2799 525.514 84.0166 526.382C88.3965 526.654 92.7861 526.822 97.1813 526.902C100.286 536.155 104.449 543.083 107.317 547.857C108.781 550.293 109.907 552.168 110.384 553.504C110.831 554.756 114.797 563.589 120.41 576.089L120.414 576.097L120.416 576.102L120.417 576.105L120.418 576.106C136.108 611.047 164.65 674.608 165.152 681.35C165.187 681.829 165.267 682.259 165.385 682.643C165.328 682.732 165.282 682.806 165.247 682.862C165.196 682.946 165.169 682.991 165.169 682.991C165.169 682.991 161.582 692.517 156.592 694.775C154.456 695.742 151.164 698.21 147.741 700.776C143.166 704.205 138.357 707.809 135.762 708.241C135.241 708.328 134.636 708.416 133.972 708.512C128.86 709.255 120.269 710.504 119.734 715.574C119.129 721.301 120.301 726.502 142.226 723.489C143.21 723.354 144.192 723.204 145.169 723.042C150.579 728.589 176.328 730.488 190.667 718.971C195.892 714.773 199.807 711.915 202.72 709.79C208.489 705.578 210.326 704.237 210.628 701.034C210.837 698.807 210.396 693.311 209.958 687.844C209.446 681.461 208.938 675.117 209.47 674.062C209.481 674.04 209.49 674.019 209.497 673.998L209.499 673.991L209.502 673.983L209.505 673.972C209.506 673.967 209.507 673.961 209.508 673.956L209.51 673.947L209.511 673.934C213.848 666.18 221.488 638.251 227.647 615.741C231.206 602.73 234.271 591.529 235.916 587.08C239.108 578.443 237.716 561.736 236.655 548.999C236.133 542.73 235.691 537.422 235.916 534.514C236.235 530.376 240.378 515.551 244.684 500.143C245.864 499.603 246.905 499.018 247.792 498.286C249.528 496.862 250.678 494.877 251.124 491.577L251.139 491.49C251.468 489.008 251.812 486.519 252.156 484.03C252.814 479.41 253.505 474.792 254.198 470.165L254.251 469.81L254.403 468.779C254.481 468.252 254.56 467.725 254.638 467.197L254.641 467.177C254.793 466.16 254.944 465.142 255.094 464.123C255.818 459.218 256.521 454.306 257.166 449.393C257.444 447.283 257.707 445.173 257.964 443.056C258.491 438.625 258.953 434.187 259.319 429.749C259.561 426.96 259.759 424.165 259.912 421.369C260.117 417.536 260.241 413.697 260.256 409.866C260.264 408.952 260.264 408.04 260.256 407.127C260.256 404.959 260.22 402.785 260.139 400.601C260 396.594 259.728 392.571 259.297 388.564C259.04 386.075 258.725 383.601 258.337 381.141C257.598 376.315 256.617 371.527 255.379 366.826C254.986 365.333 254.567 363.853 254.12 362.383C256.156 362.405 258.125 361.961 259.868 360.795C262.868 358.787 265.632 356.983 267.828 355.566C268.336 356.331 269.94 358.532 271.58 358.532C271.657 358.532 271.733 358.527 271.81 358.517C272.364 358.445 273.115 358.088 273.543 356.795C273.77 356.11 273.836 354.965 272.658 352.487L272.787 352.406L272.67 352.28C275.416 350.163 315.117 319.447 316.212 312.681C317.347 305.672 290.78 251.822 290.78 251.822L266.423 273.893C266.423 273.893 292.031 306.125 289.266 310.42C286.682 314.432 265.838 339.542 263.094 342.844C261.622 343.654 257.363 345.759 254.476 344.772C253.75 344.523 253.118 343.989 252.51 343.316C252.16 341.861 251.362 338.806 250.67 338.116C250.214 337.662 249.776 336.182 249.333 334.69C248.887 333.185 248.436 331.666 247.961 331.172C245.456 328.57 243.845 328.318 242.903 328.17C242.61 328.124 242.381 328.088 242.21 327.994L242.209 327.989C241.93 327.039 241.659 326.105 241.403 325.206V325.199C240.604 322.455 239.909 320.031 239.462 318.337C239.381 318.053 239.345 317.71 239.337 317.316C239.25 313.009 243.139 302.775 247.474 292.774C248.477 290.445 249.509 288.132 250.521 285.905L250.528 285.898C251.67 283.372 252.791 280.963 253.824 278.789C256.701 272.685 258.854 268.386 258.854 268.386L264.714 275.226L292.572 249.991L287.058 239.888C287.058 239.888 283.974 234.45 279.229 227.215C276.761 223.45 273.838 219.187 270.675 214.96C268.32 211.817 265.829 208.69 263.285 205.788C267.026 207.78 269.409 205.635 267.462 199.652C266.647 197.147 265.039 195.068 263.296 192.814C259.216 187.54 254.395 181.307 257.256 166.418C259.537 154.544 256.436 145.704 253.335 136.863C250.886 129.881 248.436 122.898 248.636 114.418C249.091 95.2019 232.078 86.8363 220.51 83.4448ZM228.537 144.408C228.623 144.259 228.712 144.114 228.803 143.975C228.779 143.921 228.755 143.866 228.731 143.812C228.674 143.999 228.61 144.198 228.537 144.408ZM271.582 356.777C271.245 356.843 270.14 355.861 269.307 354.615C269.71 354.356 270.085 354.117 270.426 353.9C270.69 353.731 270.935 353.576 271.159 353.433C272.017 355.292 271.948 356.013 271.872 356.244C271.723 356.693 271.582 356.777 271.582 356.777ZM243.517 332.415C243.448 332.121 243.354 331.805 243.245 331.481C243.333 331.792 243.425 332.106 243.517 332.415ZM147.224 540.44C146.594 536.255 145.784 530.872 146.667 524.62C150.24 524.27 153.807 523.872 157.369 523.419C160.328 523.054 163.272 522.653 166.216 522.208C170.837 521.528 175.443 520.761 180.035 519.907C186.584 518.675 193.092 517.259 199.546 515.631C198.612 522.668 197.47 532.348 198.152 539.603C199.173 550.456 196.451 670.158 194.07 676.944L194.1 676.961L194.09 676.964C194.09 676.964 189.331 685.31 185.746 688.068C185.223 684.288 184.217 680.65 182.447 677.738C182.484 677.58 182.503 677.427 182.503 677.278C182.503 675.88 181.132 669.459 179.292 660.846C175.338 642.324 169.218 613.664 169.914 603.017C170.533 593.569 162.289 577.279 155.692 564.243C151.397 555.756 147.8 548.649 147.8 545.706C147.8 544.266 147.534 542.498 147.224 540.44Z" fill="#323232" fill-opacity="0.3"/>
</g>
<path d="M248.129 340.384C248.129 340.384 247.025 335.32 246.109 334.407C245.193 333.494 244.347 328.447 243.399 327.463C240.099 324.035 238.352 324.685 237.64 324.28C236.928 323.873 238.58 326.918 238.987 328.844C239.393 330.772 239.704 333.439 240.484 333.697C241.263 333.953 246.142 342.15 248.129 340.384Z" fill="#FAC5B1"/>
<path d="M255.695 403.418C255.702 404.331 255.702 405.243 255.695 406.156C255.68 409.988 255.556 413.826 255.351 417.66C255.198 420.456 255 423.251 254.758 426.039C254.391 430.478 253.93 434.915 253.403 439.347C253.146 441.464 252.883 443.574 252.605 445.683C251.96 450.597 251.257 455.508 250.532 460.414C250.254 462.313 249.968 464.209 249.69 466.101C248.979 470.846 248.269 475.582 247.595 480.32C247.251 482.809 246.907 485.298 246.578 487.78L246.563 487.868C246.116 491.167 244.966 493.152 243.23 494.577C241.18 496.27 238.301 497.177 234.787 498.57C234.164 498.811 233.519 499.073 232.86 499.351C229.484 500.79 226.072 502.146 222.63 503.41C218.8 504.834 214.933 506.147 211.036 507.373H211.029C210.26 507.621 209.491 507.861 208.723 508.096C207.156 508.577 205.588 509.037 204.014 509.491C194.618 512.183 185.089 514.389 175.473 516.198C170.882 517.052 166.276 517.819 161.654 518.498C158.711 518.943 155.767 519.344 152.808 519.71C148.911 520.205 145.008 520.635 141.097 521.008H141.09C140.035 521.119 138.988 521.22 137.934 521.315C129.797 522.053 121.602 522.63 113.4 522.951C108.558 523.14 103.711 523.249 98.8624 523.249C92.3812 523.249 85.9077 523.073 79.4554 522.673C79.7187 521.805 79.9973 520.942 80.3052 520.075C81.8001 515.745 83.7402 511.453 85.8343 507.205C86.9327 504.993 88.0686 502.795 89.2106 500.613V500.606C90.4847 498.175 91.7594 495.759 92.9895 493.373V493.364C93.7288 491.912 94.454 490.475 95.1427 489.044C98.1448 482.839 101.163 476.642 104.187 470.444C106.34 466.034 108.494 461.632 110.653 457.23C113.275 451.882 115.905 446.538 118.533 441.194C119.266 439.705 119.999 438.216 120.731 436.734V436.726C122.679 432.769 124.626 428.822 126.582 424.872C127.593 422.814 128.611 420.755 129.629 418.697V418.689C131.094 415.704 132.573 412.726 134.045 409.746C137.648 402.462 141.252 395.184 144.861 387.905C145.088 387.44 145.323 386.964 145.558 386.497C147.593 382.402 149.322 378.315 151.387 374.497C152.602 372.241 153.943 370.088 155.525 368.088C156.975 366.263 158.63 364.562 160.592 363.043C163.016 361.16 165.47 359.305 167.96 357.495H167.982C170.376 355.744 172.786 354.028 175.246 352.372C178.44 350.211 181.684 348.137 184.994 346.188C188.678 343.999 192.434 341.947 196.273 340.086C197.591 339.428 198.916 338.809 200.257 338.202C201.955 337.436 203.779 336.662 205.691 335.918C209.008 334.634 212.567 333.458 216.177 332.692H216.185C220.791 331.698 225.42 331.356 229.719 332.238H229.77C231.579 332.604 233.322 333.195 234.963 334.042H234.97C237.123 335.151 239.1 336.699 240.843 338.794C241.839 339.984 242.718 341.298 243.501 342.699L243.516 342.743C244 343.583 244.438 344.459 244.849 345.349C246.651 349.254 247.94 353.525 249.141 357.328C249.748 359.241 250.305 361.167 250.818 363.116C252.056 367.818 253.037 372.606 253.776 377.432C254.164 379.892 254.478 382.366 254.736 384.855C255.167 388.862 255.439 392.885 255.578 396.892C255.658 399.075 255.695 401.25 255.695 403.418Z" fill="#5460A1"/>
<path d="M121.297 261.113C121.297 261.113 113.353 280.263 110.859 278.68C108.364 277.097 95.8883 261.272 85.9088 254.037C75.9283 246.803 59.5967 227.133 59.5967 227.133C59.5967 227.133 43.7195 236.854 44.627 238.663C45.5345 240.472 106.435 318.498 111.199 318.358C125.169 317.944 143.748 277.324 143.748 277.324C143.748 277.324 140.129 264.798 121.297 261.113Z" fill="#FAC5B1"/>
<path d="M187.834 85.7691C187.834 85.7691 176.986 89.6767 172.998 106.858C169.009 124.042 177.865 155.178 174.673 167.613C171.481 180.048 153.493 197.853 152.178 204.694C150.863 211.537 204.733 187.798 204.733 187.798C204.733 187.798 245.675 96.1051 187.834 85.7691Z" fill="#323232"/>
<path d="M35.2671 206.857C35.2671 206.857 30.8926 197.423 29.3369 195.291C27.7832 193.158 32.1268 188.207 35.2392 193.793C38.3512 199.38 40.2609 202.957 40.2609 202.957L35.2671 206.857Z" fill="#FAC5B1"/>
<path d="M39.3338 215.718L24.1215 174.898C23.1188 172.209 24.6963 169.25 27.4932 168.572L47.4866 163.728C49.9954 163.12 52.5372 164.596 53.2466 167.07L65.2969 209.136C66.0601 211.804 64.4015 214.558 61.6795 215.139L44.8492 218.735C42.5141 219.234 40.1648 217.949 39.3338 215.718Z" fill="#364451"/>
<path d="M33.7546 213.183C33.7546 213.183 31.9006 209.671 37.5294 203.41C45.0067 195.095 55.5721 185.408 58.1873 185.69C61.95 186.094 61.3448 189.07 56.2578 193.46C51.1703 197.85 49.4824 199.279 49.4824 199.279C49.4824 199.279 60.5634 193.385 63.7275 193.689C66.8906 193.99 68.3653 197.105 66.6911 198.414C65.0184 199.722 60.6905 201.892 60.6905 201.892C60.6905 201.892 65.661 200.043 66.9706 201.798C67.9399 203.098 68.9857 205.101 64.712 207.886C64.712 207.886 69.3133 210.052 65.5294 214.239C61.7454 218.425 61.3408 220.889 62.1839 226.095C63.0261 231.302 60.055 239.7 60.055 239.7L43.6844 236.346C43.6844 236.346 41.3017 225.12 39.1733 222.018C37.0453 218.917 33.7546 213.183 33.7546 213.183Z" fill="#FAC5B1"/>
<path d="M288.011 246.281L278.197 255.172L268.127 264.29L260.153 271.517L254.886 265.37L254.293 264.676C254.293 264.676 252.14 268.976 249.262 275.079C248.23 277.254 247.109 279.663 245.966 282.188L245.959 282.195C244.948 284.423 243.915 286.736 242.912 289.065C238.578 299.066 234.689 309.3 234.776 313.607C234.783 314.001 234.82 314.344 234.901 314.628C235.348 316.322 236.043 318.746 236.841 321.49V321.497C237.098 322.396 237.369 323.329 237.648 324.279C237.955 325.323 238.269 326.389 238.591 327.461L238.621 327.549C238.731 327.943 238.848 328.344 238.966 328.739L238.972 328.754L238.987 328.804C239.478 330.468 239.968 332.111 240.437 333.674C241.66 337.775 242.708 341.25 243.147 342.696L243.161 342.74C243.294 343.177 243.367 343.419 243.367 343.419C236.043 346.944 226.185 350.375 215.706 353.5C212.278 354.528 208.778 355.521 205.285 356.47C202.106 357.331 198.928 358.163 195.801 358.96C190.74 360.251 185.811 361.434 181.234 362.493C178.019 363.244 174.973 363.924 172.183 364.537H172.175C167.84 365.492 164.104 366.281 161.249 366.865C157.418 367.654 155.17 368.084 155.17 368.084C155.17 368.084 158.59 346.141 160.407 330.937C160.604 329.309 160.78 327.76 160.926 326.323C161.432 321.578 161.665 318.059 161.41 317.038C160.355 312.818 158.311 289.758 156.268 287.722C155.544 286.992 154.211 284.992 152.797 282.714C150.242 278.604 147.421 273.589 147.421 273.589L144.31 278.378L140.149 275.334L133.303 270.327L121.643 261.793L118.772 259.692C118.772 259.692 119.988 257.122 121.986 253.099C123.73 249.581 126.067 244.953 128.717 239.945C132.277 233.215 136.393 225.806 140.369 219.507C143.064 215.236 145.686 211.477 148.03 208.782C148.601 208.126 149.158 207.528 149.693 207.009C160.809 196.162 192.79 185.081 192.79 185.081C192.79 185.081 196.284 185.11 201.557 185.242C205.724 185.343 211.012 185.519 216.562 185.797C224.377 186.191 232.74 186.796 239.287 187.716C247.446 188.869 257.655 199.964 266.114 211.25C269.277 215.477 272.199 219.74 274.668 223.506C279.412 230.74 282.496 236.179 282.496 236.179L288.011 246.281Z" fill="#5460A1"/>
<path d="M249.323 357.318C245.932 356.594 243.399 353.594 243.399 349.996C243.399 348.236 244.007 346.616 245.032 345.338C246.833 349.244 248.122 353.514 249.323 357.318Z" fill="#E96D6D"/>
<path d="M209.363 192.821C205.219 192.821 201.857 189.469 201.857 185.331V185.243C206.024 185.345 211.312 185.521 216.862 185.798C216.622 189.718 213.362 192.821 209.363 192.821Z" fill="#E96D6D"/>
<path d="M209.365 233.989C205.219 233.989 201.857 230.638 201.857 226.505C201.857 222.371 205.219 219.019 209.365 219.019C213.513 219.019 216.874 222.371 216.874 226.505C216.874 230.638 213.513 233.989 209.365 233.989Z" fill="#E96D6D"/>
<path d="M209.365 213.403C205.219 213.403 201.857 210.052 201.857 205.919C201.857 201.785 205.219 198.434 209.365 198.434C213.513 198.434 216.874 201.785 216.874 205.919C216.874 210.052 213.513 213.403 209.365 213.403Z" fill="#E96D6D"/>
<path d="M188.595 223.697C184.448 223.697 181.085 220.345 181.085 216.212C181.085 212.079 184.448 208.727 188.595 208.727C192.742 208.727 196.103 212.079 196.103 216.212C196.103 220.345 192.742 223.697 188.595 223.697Z" fill="#E96D6D"/>
<path d="M261.861 270.184C261.861 270.184 287.47 302.415 284.704 306.711C281.938 311.007 258.235 339.493 258.235 339.493L267.96 348.686C267.96 348.686 310.517 315.98 311.651 308.971C312.785 301.963 286.219 248.113 286.219 248.113L261.861 270.184Z" fill="#FAC5B1"/>
<path d="M223.869 141.002C218.146 156.836 223.226 186.163 223.226 186.163C225.028 208.274 197.38 238.891 182.865 227.134C168.349 215.377 191.484 190.056 194.415 185.082C195.661 182.966 195.848 179.889 195.65 177.048C195.383 173.204 194.415 169.794 194.415 169.794C194.415 169.794 199.457 163.398 205.414 156.307C215.189 144.669 227.423 131.165 223.869 141.002Z" fill="#FAC5B1"/>
<path d="M43.1057 233.346C43.1057 233.346 43.8887 238.446 45.7695 240.078C47.6503 241.71 48.173 237.238 48.173 237.238L43.1057 233.346Z" fill="#FAC5B1"/>
<path d="M259.057 338.835C259.057 338.835 253.455 342.274 249.915 341.062C247.137 340.112 245.743 334.978 241.774 333.963C237.807 332.949 228.955 325.343 224.682 325.242C220.408 325.14 210.03 328.791 210.132 330.414C210.234 332.036 220.001 330.313 221.731 330.109C223.461 329.907 228.649 333.253 228.344 334.368C228.038 335.484 219.493 333.051 217.56 334.368C215.627 335.688 207.69 342.888 207.792 344.307C207.894 345.727 209.827 347.047 210.844 346.438C210.844 346.438 207.792 349.074 210.742 349.784C213.694 350.494 214.812 346.539 219.797 345.22C224.783 343.902 228.751 344.612 228.751 345.423C228.751 346.234 223.562 345.727 221.731 346.843C219.9 347.959 216.135 350.291 216.44 352.522C216.745 354.753 220.408 351.914 222.748 351.204C225.089 350.494 229.527 350.9 233.412 352.725C237.298 354.55 248.184 361.852 255.306 357.086C262.429 352.319 268.226 348.696 268.226 348.696L259.057 338.835Z" fill="#FAC5B1"/>
<path d="M267.018 354.823C265.35 354.823 263.718 352.544 263.241 351.818L264.714 350.857C265.55 352.125 266.679 353.135 267.02 353.068C267.02 353.068 267.162 352.983 267.311 352.535C267.436 352.157 267.54 350.468 263.607 344.644C261.415 341.398 259 338.854 258.977 338.824L260.208 337.341C260.232 337.37 262.832 340.353 265.068 343.665C269.3 349.93 269.328 352.042 268.982 353.086C268.553 354.379 267.802 354.736 267.249 354.808C267.172 354.818 267.095 354.823 267.018 354.823Z" fill="#D88A51"/>
<path d="M217.934 155.083C217.934 155.083 212.883 173.113 195.673 177.055C195.406 173.211 194.438 169.802 194.438 169.802C194.438 169.802 199.48 163.405 205.437 156.315L217.934 155.083Z" fill="#AC887B"/>
<path d="M191.035 88.7721C191.035 88.7721 171.982 95.7809 175.61 132.632C179.24 169.484 188.766 170.388 198.746 169.711C208.726 169.031 218.933 157.727 223.469 142.353C228.006 126.98 246.832 72.4942 191.035 88.7721Z" fill="#FAC5B1"/>
<path d="M184.498 153.963C190.054 158.184 205.926 153.83 207.89 149.728C204.755 156.469 192.573 162.278 184.498 153.963Z" fill="white"/>
<path d="M189.367 134.196C186.065 132.513 182.301 131.92 178.637 132.504C182.409 130.204 187.347 129.367 189.367 134.196Z" fill="#162141"/>
<path d="M198.611 134.121C198.611 134.121 201.109 124.685 214.922 130.717C211.651 130.048 207.213 130.734 198.611 134.121Z" fill="#162141"/>
<path d="M195.836 104.14C195.836 104.14 221.694 127.654 226.23 145.967C226.23 145.967 240.519 96.2282 227.818 88.3149C215.116 80.4016 191.073 88.7671 191.073 88.7671C191.073 88.7671 172.919 88.3291 174.507 133.093C174.507 133.093 183.133 110.471 195.836 104.14Z" fill="#323232"/>
<path d="M188.503 85.7761C188.503 85.7761 204.381 76.345 215.949 79.7355C227.517 83.127 244.53 91.4926 244.075 110.709C243.622 129.927 256.777 141.457 252.695 162.709C248.611 183.961 260.179 187.578 262.901 195.943C265.623 204.308 259.879 205.171 253.797 197.71C247.713 190.249 235.91 188.831 232.507 201.882C229.105 214.934 219.075 240.708 203.449 239.803C187.823 238.899 192.359 216.516 209.145 206.569C225.93 196.621 216.856 151.091 224.329 140.135C231.021 130.324 213.812 98.2745 202.859 95.3363C191.907 92.3965 188.503 85.7761 188.503 85.7761Z" fill="#323232"/>
</g>
<defs>
<filter id="filter0_i" x="0" y="173.211" width="366" height="218.155" filterUnits="userSpaceOnUse" color-interpolation-filters="sRGB">
<feFlood flood-opacity="0" result="BackgroundImageFix"/>
<feBlend mode="normal" in="SourceGraphic" in2="BackgroundImageFix" result="shape"/>
<feColorMatrix in="SourceAlpha" type="matrix" values="0 0 0 0 0 0 0 0 0 0 0 0 0 0 0 0 0 0 127 0" result="hardAlpha"/>
<feOffset dy="-8.60666"/>
<feGaussianBlur stdDeviation="19.365"/>
<feComposite in2="hardAlpha" operator="arithmetic" k2="-1" k3="1"/>
<feColorMatrix type="matrix" values="0 0 0 0 0 0 0 0 0 0 0 0 0 0 0 0 0 0 0.3 0"/>
<feBlend mode="normal" in2="shape" result="effect1_innerShadow"/>
</filter>
<filter id="filter1_f" x="8.37968" y="62.7093" width="327.868" height="684.722" filterUnits="userSpaceOnUse" color-interpolation-filters="sRGB">
<feFlood flood-opacity="0" result="BackgroundImageFix"/>
<feBlend mode="normal" in="SourceGraphic" in2="BackgroundImageFix" result="shape"/>
<feGaussianBlur stdDeviation="10" result="effect1_foregroundBlur"/>
</filter>
<linearGradient id="paint0_linear" x1="13.534" y1="187.427" x2="392.021" y2="311.904" gradientUnits="userSpaceOnUse">
<stop stop-color="#DFB853"/>
<stop offset="1" stop-color="#F74343"/>
</linearGradient>
<linearGradient id="paint1_linear" x1="11.9117" y1="345.413" x2="392.105" y2="396.51" gradientUnits="userSpaceOnUse">
<stop stop-color="#8853DF"/>
<stop offset="1" stop-color="#5377DF"/>
</linearGradient>
</defs>
</svg>
